SplineFontDB: 1.0
FontName: UbuntuTitleBook
FullName: UbuntuTitleBook
FamilyName: UbuntuTitleBook
Weight: Book
Copyright: Copyright (c) 2005 Canonical Ltd.\nmade by Andrew Fitzsimon ( andrew@fitzsimon.com.au ) \nreleased under the LGPL ( http://www.gnu.org/copyleft/lesser.html )\nbook version from Paulo Silva - june'07
Version: 002.000
ItalicAngle: 0
UnderlinePosition: -100
UnderlineWidth: 50
Ascent: 800
Descent: 200
Order2: 1
XUID: [1021 682 1097764676 9831424]
FSType: 0
OS2Version: 1
OS2_WeightWidthSlopeOnly: 0
OS2_UseTypoMetrics: 1
CreationTime: 1124425253
ModificationTime: 1181148585
PfmFamily: 17
TTFWeight: 400
TTFWidth: 5
LineGap: 88
VLineGap: 0
Panose: 2 0 5 3 0 0 0 0 0 0
OS2TypoAscent: 0
OS2TypoAOffset: 1
OS2TypoDescent: 0
OS2TypoDOffset: 1
OS2TypoLinegap: 0
OS2WinAscent: 0
OS2WinAOffset: 1
OS2WinDescent: 0
OS2WinDOffset: 1
HheadAscent: 0
HheadAOffset: 1
HheadDescent: 0
HheadDOffset: 1
OS2SubXSize: 648
OS2SubYSize: 696
OS2SubXOff: 0
OS2SubYOff: 138
OS2SupXSize: 648
OS2SupYSize: 696
OS2SupXOff: 0
OS2SupYOff: 476
OS2StrikeYSize: 48
OS2StrikeYPos: 256
OS2Vendor: 'PfEd'
ScriptLang: 1
 1 latn 1 dflt 
TableOrder: GPOS 1
	'kern'
TtfTable: cvt  4
!$MDh
EndTtf
TtfTable: maxp 32
!!*'"!+>k6!!<3$!!!!#!!!!"!!*'"!'gMaz
EndTtf
LangName: 1033 
LangName: 2057 "" "" "Ubuntu-Title" 
LangName: 3081 "" "" "Ubuntu-Title" 
Encoding: UnicodeFull
Compacted: 1
UnicodeInterp: none
NameList: Adobe Glyph List
DisplaySize: -48
AntiAlias: 1
FitToEm: 1
WinInfo: 0 25 10
BeginChars: 1114114 163
StartChar: exclam
Encoding: 33 33 4
Width: 352
GlyphClass: 2
Flags: W
Fore
176.629 668.828 m 128,-1,1
 192.154 668.828 192.154 668.828 203.142 657.841 c 128,-1,2
 214.129 646.854 214.129 646.854 214.129 631.328 c 2,3,-1
 214.129 229.234 l 2,4,5
 214.129 213.71 214.129 213.71 203.142 202.722 c 128,-1,6
 192.154 191.734 192.154 191.734 176.629 191.734 c 128,-1,7
 161.104 191.734 161.104 191.734 150.116 202.722 c 128,-1,8
 139.129 213.71 139.129 213.71 139.129 229.234 c 2,9,-1
 139.129 631.328 l 2,10,11
 139.129 646.854 139.129 646.854 150.116 657.841 c 128,-1,0
 161.104 668.828 161.104 668.828 176.629 668.828 c 128,-1,1
214.133 37.1797 m 128,-1,13
 214.133 21.6543 214.133 21.6543 203.146 10.667 c 128,-1,14
 192.157 -0.320312 192.157 -0.320312 176.633 -0.320312 c 128,-1,15
 161.107 -0.320312 161.107 -0.320312 150.12 10.667 c 128,-1,16
 139.133 21.6543 139.133 21.6543 139.133 37.1797 c 128,-1,17
 139.133 52.7051 139.133 52.7051 150.12 63.6924 c 128,-1,18
 161.107 74.6797 161.107 74.6797 176.633 74.6797 c 128,-1,19
 192.157 74.6797 192.157 74.6797 203.146 63.6924 c 128,-1,12
 214.133 52.7051 214.133 52.7051 214.133 37.1797 c 128,-1,13
EndSplineSet
EndChar
StartChar: quotedbl
Encoding: 34 34 5
Width: 430
GlyphClass: 2
Flags: W
Fore
86.1348 620.198 m 128,-1,1
 101.66 620.198 101.66 620.198 112.647 609.211 c 128,-1,2
 123.635 598.224 123.635 598.224 123.635 582.698 c 2,3,-1
 123.635 447.002 l 2,4,5
 123.635 431.477 123.635 431.477 112.647 420.489 c 128,-1,6
 101.66 409.502 101.66 409.502 86.1348 409.502 c 128,-1,7
 70.6094 409.502 70.6094 409.502 59.6221 420.489 c 128,-1,8
 48.6348 431.477 48.6348 431.477 48.6348 447.002 c 2,9,-1
 48.6348 582.698 l 2,10,11
 48.6348 598.224 48.6348 598.224 59.6221 609.211 c 128,-1,0
 70.6094 620.198 70.6094 620.198 86.1348 620.198 c 128,-1,1
291.993 620.198 m 128,-1,13
 307.519 620.198 307.519 620.198 318.506 609.211 c 128,-1,14
 329.493 598.224 329.493 598.224 329.493 582.698 c 2,15,-1
 329.493 447.002 l 2,16,17
 329.493 431.477 329.493 431.477 318.506 420.489 c 128,-1,18
 307.519 409.502 307.519 409.502 291.993 409.502 c 128,-1,19
 276.468 409.502 276.468 409.502 265.48 420.489 c 128,-1,20
 254.493 431.477 254.493 431.477 254.493 447.002 c 2,21,-1
 254.493 582.698 l 2,22,23
 254.493 598.224 254.493 598.224 265.48 609.211 c 128,-1,12
 276.468 620.198 276.468 620.198 291.993 620.198 c 128,-1,13
EndSplineSet
EndChar
StartChar: numbersign
Encoding: 35 35 6
Width: 760
GlyphClass: 2
Flags: W
Fore
199.344 711.096 m 128,-1,1
 214.869 711.096 214.869 711.096 225.856 700.108 c 128,-1,2
 236.845 689.121 236.845 689.121 236.844 673.596 c 2,3,-1
 236.844 531.252 l 1,4,-1
 456.719 531.252 l 1,5,-1
 456.719 673.596 l 2,6,7
 456.719 689.121 456.719 689.121 467.706 700.108 c 128,-1,8
 478.694 711.096 478.694 711.096 494.219 711.096 c 128,-1,9
 509.744 711.096 509.744 711.096 520.731 700.108 c 128,-1,10
 531.719 689.121 531.719 689.121 531.719 673.596 c 2,11,-1
 531.719 531.252 l 1,12,-1
 634.062 531.252 l 2,13,14
 649.588 531.252 649.588 531.252 660.575 520.265 c 128,-1,15
 671.562 509.277 671.562 509.277 671.562 493.752 c 128,-1,16
 671.562 478.227 671.562 478.227 660.575 467.239 c 128,-1,17
 649.588 456.252 649.588 456.252 634.062 456.252 c 2,18,-1
 531.719 456.252 l 1,19,-1
 531.719 238.908 l 1,20,-1
 634.062 238.908 l 2,21,22
 649.588 238.908 649.588 238.908 660.575 227.921 c 128,-1,23
 671.562 216.934 671.562 216.934 671.562 201.408 c 128,-1,24
 671.562 185.883 671.562 185.883 660.575 174.896 c 128,-1,25
 649.588 163.908 649.588 163.908 634.062 163.908 c 2,26,-1
 531.719 163.908 l 1,27,-1
 531.719 37.5645 l 2,28,29
 531.719 22.0391 531.719 22.0391 520.731 11.0518 c 128,-1,30
 509.744 0.0644531 509.744 0.0644531 494.219 0.0644531 c 128,-1,31
 478.694 0.0644531 478.694 0.0644531 467.706 11.0518 c 128,-1,32
 456.719 22.0391 456.719 22.0391 456.719 37.5645 c 2,33,-1
 456.719 163.908 l 1,34,-1
 236.844 163.908 l 1,35,-1
 236.844 37.5645 l 2,36,37
 236.844 22.0391 236.844 22.0391 225.856 11.0518 c 128,-1,38
 214.869 0.0644531 214.869 0.0644531 199.344 0.0644531 c 128,-1,39
 183.819 0.0644531 183.819 0.0644531 172.832 11.0518 c 128,-1,40
 161.845 22.0391 161.845 22.0391 161.844 37.5645 c 2,41,-1
 161.844 163.908 l 1,42,-1
 55.5 163.908 l 2,43,44
 39.9756 163.908 39.9756 163.908 28.9873 174.896 c 128,-1,45
 18 185.883 18 185.883 18 201.408 c 128,-1,46
 18 216.934 18 216.934 28.9873 227.921 c 128,-1,47
 39.9756 238.908 39.9756 238.908 55.5 238.908 c 2,48,-1
 161.844 238.908 l 1,49,-1
 161.844 456.252 l 1,50,-1
 55.5 456.252 l 2,51,52
 39.9756 456.252 39.9756 456.252 28.9873 467.239 c 128,-1,53
 18 478.227 18 478.227 18 493.752 c 128,-1,54
 18 509.277 18 509.277 28.9873 520.265 c 128,-1,55
 39.9756 531.252 39.9756 531.252 55.5 531.252 c 2,56,-1
 161.844 531.252 l 1,57,-1
 161.844 673.596 l 2,58,59
 161.844 689.121 161.844 689.121 172.831 700.108 c 128,-1,0
 183.819 711.096 183.819 711.096 199.344 711.096 c 128,-1,1
236.844 456.252 m 1,60,-1
 236.844 238.908 l 1,61,-1
 456.719 238.908 l 1,62,-1
 456.719 456.252 l 1,63,-1
 236.844 456.252 l 1,60,-1
EndSplineSet
EndChar
StartChar: dollar
Encoding: 36 36 7
Width: 567
GlyphClass: 2
Flags: W
Fore
288.566 696.219 m 128,-1,1
 304.092 696.219 304.092 696.219 315.079 685.231 c 128,-1,2
 326.066 674.244 326.066 674.244 326.066 658.719 c 2,3,-1
 326.066 594.375 l 1,4,-1
 458.41 594.375 l 2,5,6
 473.936 594.375 473.936 594.375 484.923 583.388 c 128,-1,7
 495.91 572.4 495.91 572.4 495.91 556.875 c 128,-1,8
 495.91 541.35 495.91 541.35 484.923 530.362 c 128,-1,9
 473.936 519.375 473.936 519.375 458.41 519.375 c 2,10,-1
 326.066 519.375 l 1,11,-1
 326.066 383.875 l 1,12,-1
 385.629 384.625 l 2,13,14
 442.43 385.34 442.43 385.34 483.476 341.735 c 0,15,16
 523.848 298.847 523.848 298.847 523.848 243.125 c 0,17,18
 523.848 190.684 523.848 190.684 483.06 144.154 c 0,19,20
 443.742 99.3018 443.742 99.3018 385.629 97.625 c 2,21,-1
 326.066 95.9062 l 1,22,-1
 326.066 35.5625 l 2,23,24
 326.066 20.0371 326.066 20.0371 315.079 9.0498 c 128,-1,25
 304.092 -1.9375 304.092 -1.9375 288.566 -1.9375 c 128,-1,26
 273.042 -1.9375 273.042 -1.9375 262.054 9.0498 c 128,-1,27
 251.066 20.0371 251.066 20.0371 251.066 35.5625 c 2,28,-1
 251.066 95.9062 l 1,29,-1
 104.723 95.9062 l 2,30,31
 89.1973 95.9062 89.1973 95.9062 78.21 106.894 c 128,-1,32
 67.2227 117.881 67.2227 117.881 67.2227 133.406 c 128,-1,33
 67.2227 148.932 67.2227 148.932 78.21 159.919 c 128,-1,34
 89.1973 170.906 89.1973 170.906 104.723 170.906 c 2,35,-1
 251.066 170.906 l 1,36,-1
 251.066 308.875 l 1,37,-1
 196.004 309.844 l 2,38,39
 137.178 310.879 137.178 310.879 96.9873 351.933 c 0,40,41
 55.7852 394.022 55.7852 394.022 55.7852 449.344 c 0,42,43
 55.7852 501.562 55.7852 501.562 97.5 548.203 c 0,44,45
 139.643 595.323 139.643 595.323 196.004 594.844 c 2,46,-1
 251.066 594.375 l 1,47,-1
 251.066 658.719 l 2,48,49
 251.066 674.244 251.066 674.244 262.054 685.231 c 128,-1,0
 273.042 696.219 273.042 696.219 288.566 696.219 c 128,-1,1
251.066 519.375 m 1,50,-1
 196.004 519.844 l 2,51,52
 173.818 520.032 173.818 520.032 151.982 495.779 c 128,-1,53
 130.316 471.714 130.316 471.714 130.316 452.188 c 0,54,55
 130.316 427.827 130.316 427.827 151.626 406.335 c 0,56,57
 172.526 385.257 172.526 385.257 196.004 384.844 c 2,58,-1
 251.066 383.875 l 1,59,-1
 251.066 519.375 l 1,50,-1
385.629 309.625 m 2,60,-1
 326.066 308.875 l 1,61,-1
 326.066 170.906 l 1,62,-1
 385.629 172.625 l 2,63,64
 408.444 173.283 408.444 173.283 428.596 196.599 c 0,65,66
 449.316 220.573 449.316 220.573 449.316 240.281 c 0,67,68
 449.316 264.957 449.316 264.957 428.853 287.291 c 0,69,70
 408.129 309.908 408.129 309.908 385.629 309.625 c 2,60,-1
EndSplineSet
EndChar
StartChar: quotesingle
Encoding: 39 39 8
Width: 352
GlyphClass: 2
Flags: W
Fore
172.238 628.198 m 128,-1,1
 187.764 628.198 187.764 628.198 198.751 617.211 c 128,-1,2
 209.738 606.224 209.738 606.224 209.738 590.698 c 2,3,-1
 209.738 455.002 l 2,4,5
 209.738 439.478 209.738 439.478 198.751 428.489 c 128,-1,6
 187.764 417.502 187.764 417.502 172.238 417.502 c 128,-1,7
 156.713 417.502 156.713 417.502 145.726 428.489 c 128,-1,8
 134.738 439.478 134.738 439.478 134.738 455.002 c 2,9,-1
 134.738 590.698 l 2,10,11
 134.738 606.224 134.738 606.224 145.726 617.211 c 128,-1,0
 156.713 628.198 156.713 628.198 172.238 628.198 c 128,-1,1
EndSplineSet
EndChar
StartChar: parenleft
Encoding: 40 40 9
Width: 348
GlyphClass: 2
Flags: W
Fore
182.719 700.094 m 0,0,1
 198.244 700.094 198.244 700.094 209.231 689.106 c 128,-1,2
 220.219 678.119 220.219 678.119 220.219 662.594 c 0,3,4
 220.219 643.257 220.219 643.257 204.344 632 c 1,5,6
 122.625 537.166 122.625 537.166 122.625 349.75 c 0,7,8
 125.964 263.118 125.964 263.118 143.986 196.609 c 128,-1,9
 162.009 130.102 162.009 130.102 204.469 70.4375 c 1,10,11
 220.219 59.1729 220.219 59.1729 220.219 39.9375 c 0,12,13
 220.219 24.4121 220.219 24.4121 209.231 13.4248 c 128,-1,14
 198.244 2.4375 198.244 2.4375 182.719 2.4375 c 0,15,16
 160.029 4.26465 160.029 4.26465 148 19.75 c 0,17,18
 91.8174 90.4424 91.8174 90.4424 69.9082 169.397 c 128,-1,19
 48 248.353 48 248.353 48 349.75 c 0,20,21
 48 456.032 48 456.032 68.3223 537.791 c 128,-1,22
 88.6455 619.55 88.6455 619.55 148 679.75 c 1,23,24
 162.916 699.978 162.916 699.978 182.719 700.094 c 0,0,1
EndSplineSet
EndChar
StartChar: parenright
Encoding: 41 41 10
Width: 348
GlyphClass: 2
Flags: W
Fore
119.125 700.094 m 4,0,1
 138.928 699.978 138.928 699.978 153.844 679.75 c 5,2,3
 213.198 619.55 213.198 619.55 233.521 537.791 c 132,-1,4
 253.844 456.032 253.844 456.032 253.844 349.75 c 4,5,6
 253.844 248.353 253.844 248.353 231.936 169.397 c 132,-1,7
 210.026 90.4424 210.026 90.4424 153.844 19.75 c 4,8,9
 141.814 4.26465 141.814 4.26465 119.125 2.4375 c 4,10,11
 103.6 2.4375 103.6 2.4375 92.6123 13.4248 c 132,-1,12
 81.625 24.4121 81.625 24.4121 81.625 39.9375 c 4,13,14
 81.625 59.1729 81.625 59.1729 97.375 70.4375 c 5,15,16
 139.835 130.102 139.835 130.102 157.857 196.609 c 132,-1,17
 175.88 263.118 175.88 263.118 179.219 349.75 c 4,18,19
 179.219 537.166 179.219 537.166 97.5 632 c 5,20,21
 81.625 643.257 81.625 643.257 81.625 662.594 c 4,22,23
 81.625 678.119 81.625 678.119 92.6123 689.106 c 132,-1,24
 103.6 700.094 103.6 700.094 119.125 700.094 c 4,0,1
EndSplineSet
EndChar
StartChar: asterisk
Encoding: 42 42 11
Width: 498
GlyphClass: 2
Flags: W
Fore
169.531 795.812 m 0,0,1
 191.843 796.388 191.843 796.388 203 777.062 c 2,2,-1
 264.969 669.75 l 1,3,-1
 326.907 777.062 l 2,4,5
 334.671 790.511 334.671 790.511 349.675 794.541 c 128,-1,6
 364.679 798.572 364.679 798.572 378.125 790.812 c 128,-1,7
 391.568 783.051 391.568 783.051 395.589 768.029 c 128,-1,8
 399.608 753.007 399.608 753.007 391.844 739.562 c 2,9,-1
 329.907 632.281 l 1,10,-1
 453.812 632.281 l 2,11,12
 469.338 632.281 469.338 632.281 480.325 621.294 c 128,-1,13
 491.313 610.307 491.313 610.307 491.312 594.781 c 128,-1,14
 491.312 579.256 491.312 579.256 480.325 568.269 c 128,-1,15
 469.338 557.281 469.338 557.281 453.812 557.281 c 2,16,-1
 329.875 557.281 l 1,17,-1
 391.844 449.969 l 2,18,19
 399.607 436.524 399.607 436.524 395.589 421.518 c 128,-1,20
 391.569 406.512 391.569 406.512 378.125 398.75 c 128,-1,21
 364.681 390.987 364.681 390.987 349.675 395.006 c 128,-1,22
 334.669 399.024 334.669 399.024 326.907 412.469 c 2,23,-1
 264.969 519.781 l 1,24,-1
 203 412.469 l 2,25,26
 195.238 399.024 195.238 399.024 180.232 395.006 c 128,-1,27
 165.226 390.987 165.226 390.987 151.781 398.75 c 128,-1,28
 138.337 406.512 138.337 406.512 134.318 421.518 c 128,-1,29
 130.3 436.524 130.3 436.524 138.062 449.969 c 2,30,-1
 200.031 557.281 l 1,31,-1
 76.125 557.281 l 2,32,33
 60.5996 557.281 60.5996 557.281 49.6123 568.269 c 128,-1,34
 38.625 579.256 38.625 579.256 38.625 594.781 c 128,-1,35
 38.625 610.307 38.625 610.307 49.6123 621.294 c 128,-1,36
 60.5996 632.281 60.5996 632.281 76.125 632.281 c 2,37,-1
 200 632.281 l 1,38,-1
 138.062 739.562 l 2,39,40
 130.299 753.007 130.299 753.007 134.318 768.029 c 128,-1,41
 138.338 783.051 138.338 783.051 151.781 790.812 c 0,42,43
 160.017 795.566 160.017 795.566 169.531 795.812 c 0,0,1
EndSplineSet
EndChar
StartChar: plus
Encoding: 43 43 12
Width: 560
GlyphClass: 2
Flags: W
Fore
317.5 639.75 m 128,-1,1
 333.025 639.75 333.025 639.75 344.013 628.763 c 128,-1,2
 355 617.775 355 617.775 355 602.25 c 2,3,-1
 355 425.906 l 1,4,-1
 531.344 425.906 l 2,5,6
 546.869 425.906 546.869 425.906 557.856 414.919 c 128,-1,7
 568.844 403.932 568.844 403.932 568.844 388.406 c 128,-1,8
 568.844 372.881 568.844 372.881 557.856 361.894 c 128,-1,9
 546.869 350.906 546.869 350.906 531.344 350.906 c 2,10,-1
 355 350.906 l 1,11,-1
 355 174.562 l 2,12,13
 355 159.037 355 159.037 344.013 148.05 c 128,-1,14
 333.025 137.062 333.025 137.062 317.5 137.062 c 128,-1,15
 301.975 137.062 301.975 137.062 290.987 148.05 c 128,-1,16
 280 159.037 280 159.037 280 174.562 c 2,17,-1
 280 350.906 l 1,18,-1
 103.656 350.906 l 2,19,20
 88.1309 350.906 88.1309 350.906 77.1436 361.894 c 128,-1,21
 66.1562 372.881 66.1562 372.881 66.1562 388.406 c 128,-1,22
 66.1562 403.932 66.1562 403.932 77.1436 414.919 c 128,-1,23
 88.1309 425.906 88.1309 425.906 103.656 425.906 c 2,24,-1
 280 425.906 l 1,25,-1
 280 602.25 l 2,26,27
 280 617.775 280 617.775 290.987 628.763 c 128,-1,0
 301.975 639.75 301.975 639.75 317.5 639.75 c 128,-1,1
EndSplineSet
EndChar
StartChar: comma
Encoding: 44 44 13
Width: 198
GlyphClass: 2
Flags: W
Fore
79.5 210.47 m 128,-1,1
 95.0244 210.47 95.0244 210.47 106.012 199.482 c 128,-1,2
 117 188.495 117 188.495 117 172.97 c 2,3,-1
 117 37.2734 l 2,4,5
 117 21.749 117 21.749 106.012 10.7617 c 128,-1,6
 95.0244 -0.226562 95.0244 -0.226562 79.5 -0.226562 c 128,-1,7
 63.9746 -0.226562 63.9746 -0.226562 52.9873 10.7607 c 128,-1,8
 42 21.749 42 21.749 42 37.2734 c 2,9,-1
 42 172.97 l 2,10,11
 42 188.495 42 188.495 52.9873 199.482 c 128,-1,0
 63.9746 210.47 63.9746 210.47 79.5 210.47 c 128,-1,1
EndSplineSet
EndChar
StartChar: hyphen
Encoding: 45 45 14
Width: 324
GlyphClass: 2
Flags: W
Fore
28.1152 238.417 m 128,-1,1
 28.1152 253.942 28.1152 253.942 39.1035 264.93 c 128,-1,2
 50.0908 275.917 50.0908 275.917 65.6152 275.917 c 2,3,-1
 263.312 275.917 l 2,4,5
 278.837 275.917 278.837 275.917 289.824 264.93 c 128,-1,6
 300.812 253.942 300.812 253.942 300.812 238.417 c 128,-1,7
 300.812 222.892 300.812 222.892 289.824 211.904 c 128,-1,8
 278.837 200.917 278.837 200.917 263.312 200.917 c 2,9,-1
 65.6152 200.917 l 2,10,11
 50.0908 200.917 50.0908 200.917 39.1035 211.904 c 128,-1,0
 28.1152 222.892 28.1152 222.892 28.1152 238.417 c 128,-1,1
EndSplineSet
EndChar
StartChar: period
Encoding: 46 46 15
Width: 164
GlyphClass: 2
Flags: W
Fore
108.688 37.5625 m 128,-1,1
 108.688 22.0371 108.688 22.0371 97.7002 11.0498 c 128,-1,2
 86.7129 0.0625 86.7129 0.0625 71.1875 0.0625 c 128,-1,3
 55.6631 0.0625 55.6631 0.0625 44.6758 11.0498 c 128,-1,4
 33.6875 22.0371 33.6875 22.0371 33.6875 37.5625 c 128,-1,5
 33.6875 53.0879 33.6875 53.0879 44.6758 64.0752 c 128,-1,6
 55.6631 75.0625 55.6631 75.0625 71.1875 75.0625 c 128,-1,7
 86.7129 75.0625 86.7129 75.0625 97.7002 64.0752 c 128,-1,0
 108.688 53.0879 108.688 53.0879 108.688 37.5625 c 128,-1,1
EndSplineSet
EndChar
StartChar: slash
Encoding: 47 47 16
Width: 622
GlyphClass: 2
Flags: W
Fore
82.3809 9.2002 m 128,-1,1
 69.9814 18.5439 69.9814 18.5439 67.8193 33.9316 c 128,-1,2
 65.6572 49.3184 65.6572 49.3184 75 61.7178 c 2,3,-1
 504.773 684.512 l 2,4,5
 514.116 696.911 514.116 696.911 529.504 699.073 c 128,-1,6
 544.892 701.235 544.892 701.235 557.29 691.893 c 128,-1,7
 569.689 682.549 569.689 682.549 571.852 667.162 c 128,-1,8
 574.015 651.774 574.015 651.774 564.671 639.376 c 2,9,-1
 134.897 16.5811 l 2,10,11
 125.554 4.18262 125.554 4.18262 110.166 2.01953 c 128,-1,0
 94.7793 -0.142578 94.7793 -0.142578 82.3809 9.2002 c 128,-1,1
EndSplineSet
EndChar
StartChar: zero
Encoding: 48 48 17
Width: 596
GlyphClass: 2
Flags: W
Fore
295.968 697.345 m 0,0,1
 360.624 697.345 360.624 697.345 409.771 670.027 c 128,-1,2
 458.916 642.71 458.916 642.71 488.265 594.12 c 128,-1,3
 517.612 545.53 517.612 545.53 532.119 483.636 c 128,-1,4
 546.625 421.742 546.625 421.742 546.625 347.813 c 0,5,6
 546.625 271.117 546.625 271.117 532.058 208.925 c 128,-1,7
 517.49 146.731 517.49 146.731 487.834 99.416 c 128,-1,8
 458.177 52.1006 458.177 52.1006 409.204 26.1914 c 128,-1,9
 360.232 0.282227 360.232 0.282227 295.25 0.282227 c 0,10,11
 170.657 0.282227 170.657 0.282227 109.328 91.9316 c 128,-1,12
 48 183.581 48 183.581 48 347.813 c 0,13,14
 48 523.707 48 523.707 111.326 610.526 c 128,-1,15
 174.651 697.345 174.651 697.345 295.968 697.345 c 0,0,1
297.125 622.813 m 0,16,17
 122.625 622.813 122.625 622.813 122.625 347.813 c 0,18,19
 122.625 217.203 122.625 217.203 169.512 145.931 c 128,-1,20
 216.398 74.6572 216.398 74.6572 295.468 74.6572 c 0,21,22
 378.846 74.6572 378.846 74.6572 425.423 142.828 c 128,-1,23
 472 210.998 472 210.998 472 347.813 c 0,24,25
 472 622.813 472 622.813 297.125 622.813 c 0,16,17
EndSplineSet
EndChar
StartChar: one
Encoding: 49 49 18
Width: 210
GlyphClass: 2
Flags: W
Fore
125.688 698.063 m 2,0,1
 142.003 697.323 142.003 697.323 152.765 686.017 c 128,-1,2
 163.527 674.709 163.527 674.709 164.5 658.376 c 2,3,-1
 164.5 40.877 l 2,4,5
 164.054 24.5498 164.054 24.5498 153.117 13.7754 c 128,-1,6
 142.181 3.00195 142.181 3.00195 125.688 1.18945 c 0,7,8
 109.093 1.18945 109.093 1.18945 99.7959 11.041 c 128,-1,9
 90.5 20.8926 90.5 20.8926 90.5 38.6895 c 2,10,-1
 89.5 623.063 l 1,11,-1
 40 623.063 l 2,12,13
 24.4756 623.063 24.4756 623.063 13.4873 634.051 c 128,-1,14
 2.5 645.039 2.5 645.039 2.5 660.563 c 128,-1,15
 2.5 676.089 2.5 676.089 13.4873 687.076 c 128,-1,16
 24.4756 698.063 24.4756 698.063 40 698.063 c 2,17,-1
 125.688 698.063 l 2,0,1
EndSplineSet
EndChar
StartChar: two
Encoding: 50 50 19
Width: 530
GlyphClass: 2
Flags: W
Fore
258.156 701.466 m 0,0,1
 487.344 701.466 487.344 701.466 487.344 487.935 c 0,2,3
 487.344 432.368 487.344 432.368 477.614 394.251 c 128,-1,4
 467.885 356.134 467.885 356.134 442.754 325.601 c 128,-1,5
 417.622 295.066 417.622 295.066 370.419 280.423 c 128,-1,6
 323.214 265.778 323.214 265.778 251.969 265.778 c 0,7,8
 200.757 265.778 200.757 265.778 161.862 234.993 c 128,-1,9
 122.969 204.209 122.969 204.209 122.969 171.278 c 2,10,-1
 122.531 79.9033 l 1,11,-1
 449.722 78.9033 l 2,12,13
 467.518 78.9033 467.518 78.9033 477.37 69.6064 c 128,-1,14
 487.222 60.3105 487.222 60.3105 487.222 43.7158 c 0,15,16
 485.409 27.2227 485.409 27.2227 474.635 16.2861 c 128,-1,17
 463.86 5.35059 463.86 5.35059 447.534 4.90332 c 2,18,-1
 87.2188 4.90332 l 2,19,20
 70.8857 5.87598 70.8857 5.87598 59.5791 16.6387 c 128,-1,21
 48.2725 27.4014 48.2725 27.4014 47.5312 43.7158 c 0,22,23
 47.5312 130.129 47.5312 130.129 48.4375 173.403 c 0,24,25
 48.4375 237.973 48.4375 237.973 108.976 289.188 c 128,-1,26
 169.513 340.403 169.513 340.403 251.969 340.403 c 0,27,28
 345.088 340.403 345.088 340.403 378.653 369.763 c 128,-1,29
 412.219 399.122 412.219 399.122 412.219 485.028 c 0,30,31
 412.219 567.466 412.219 567.466 380.458 597.2 c 128,-1,32
 348.698 626.935 348.698 626.935 257 626.935 c 0,33,34
 222.751 626.935 222.751 626.935 205.503 626.516 c 128,-1,35
 188.255 626.098 188.255 626.098 169.948 623.485 c 128,-1,36
 151.641 620.873 151.641 620.873 144.694 616.752 c 128,-1,37
 137.747 612.629 137.747 612.629 131.171 603.597 c 128,-1,38
 124.595 594.563 124.595 594.563 123.267 583.037 c 128,-1,39
 121.938 571.512 121.938 571.512 121.938 552.466 c 1,40,41
 118.292 540.938 118.292 540.938 108.45 533.608 c 128,-1,42
 98.6084 526.278 98.6084 526.278 86.1875 526.278 c 0,43,44
 70.6611 526.278 70.6611 526.278 59.6748 537.266 c 128,-1,45
 48.6865 548.253 48.6865 548.253 48.6875 563.778 c 0,46,47
 48.6875 599.3 48.6875 599.3 56.6689 622.641 c 128,-1,48
 64.6494 645.981 64.6494 645.981 86.5967 664.963 c 128,-1,49
 108.543 683.943 108.543 683.943 150.729 692.705 c 128,-1,50
 192.915 701.466 192.915 701.466 258.156 701.466 c 0,0,1
EndSplineSet
EndChar
StartChar: three
Encoding: 51 51 20
Width: 530
GlyphClass: 2
Flags: W
Fore
258.699 696.75 m 0,0,1
 371.801 696.75 371.801 696.75 430 638.578 c 128,-1,2
 488.199 580.406 488.199 580.406 488.199 479.375 c 0,3,4
 488.199 422.87 488.199 422.87 480.17 395.173 c 128,-1,5
 472.142 367.475 472.142 367.475 441.824 346.906 c 1,6,7
 452.238 340.506 452.238 340.506 459.71 333.968 c 128,-1,8
 467.183 327.431 467.183 327.431 472.243 320.319 c 128,-1,9
 477.304 313.207 477.304 313.207 480.37 305.208 c 128,-1,10
 483.437 297.208 483.437 297.208 485.04 287.884 c 128,-1,11
 486.645 278.559 486.645 278.559 487.202 267.596 c 128,-1,12
 487.759 256.633 487.759 256.633 487.804 243.593 c 128,-1,13
 487.848 230.554 487.848 230.554 487.793 215.125 c 0,14,15
 487.793 116.821 487.793 116.821 429.306 58.3477 c 128,-1,16
 370.817 -0.125 370.817 -0.125 264.262 -0.125 c 0,17,18
 159.453 -0.125 159.453 -0.125 101.592 29.8262 c 128,-1,19
 43.7305 59.7773 43.7305 59.7773 43.7305 117.469 c 0,20,21
 43.7305 147.711 43.7305 147.711 66.5898 160.77 c 128,-1,22
 89.4492 173.829 89.4492 173.829 112.309 161.435 c 128,-1,23
 135.168 149.041 135.168 149.041 135.168 117.469 c 0,24,25
 135.168 74.5 135.168 74.5 264.262 74.5 c 0,26,27
 331.974 74.5 331.974 74.5 372.696 115.486 c 128,-1,28
 413.418 156.473 413.418 156.473 413.418 215.344 c 0,29,30
 413.418 238.92 413.418 238.92 412.625 250.58 c 128,-1,31
 411.831 262.24 411.831 262.24 406.29 274.625 c 128,-1,32
 400.749 287.011 400.749 287.011 392.458 291.5 c 128,-1,33
 384.166 295.989 384.166 295.989 365.056 300.298 c 128,-1,34
 345.944 304.605 345.944 304.605 322.401 305.365 c 128,-1,35
 298.858 306.125 298.858 306.125 258.699 306.125 c 0,36,37
 237.854 306.208 237.854 306.208 228.011 313.979 c 128,-1,38
 218.167 321.749 218.167 321.749 218.167 345.524 c 0,39,40
 218.167 364.719 218.167 364.719 229.592 373.609 c 128,-1,41
 241.017 382.5 241.017 382.5 256.262 382.5 c 0,42,43
 284.782 382.5 284.782 382.5 300.844 382.969 c 128,-1,44
 316.905 383.437 316.905 383.437 336.42 385.318 c 128,-1,45
 355.935 387.201 355.935 387.201 365.96 391.182 c 128,-1,46
 375.984 395.162 375.984 395.162 386.931 401.967 c 128,-1,47
 397.876 408.772 397.876 408.772 402.67 419.32 c 128,-1,48
 407.464 429.869 407.464 429.869 410.644 444.653 c 128,-1,49
 413.824 459.437 413.824 459.437 413.824 479.594 c 0,50,51
 413.824 544.093 413.824 544.093 374.571 583.109 c 128,-1,52
 335.317 622.125 335.317 622.125 258.699 622.125 c 0,53,54
 158.557 622.125 158.557 622.125 123.949 570.344 c 1,55,56
 123.949 544.179 123.949 544.179 103.457 530.423 c 128,-1,57
 82.9648 516.666 82.9648 516.666 62.4727 527.151 c 128,-1,58
 41.9805 537.636 41.9805 537.636 41.9805 570.344 c 0,59,60
 41.9805 614.964 41.9805 614.964 74.2451 644.407 c 128,-1,61
 106.51 673.852 106.51 673.852 153.112 685.301 c 128,-1,62
 199.714 696.75 199.714 696.75 258.699 696.75 c 0,0,1
EndSplineSet
EndChar
StartChar: four
Encoding: 52 52 21
Width: 568
GlyphClass: 2
Flags: W
Fore
400.281 703.375 m 0,0,1
 410.747 703.609 410.747 703.609 419.812 698.375 c 0,2,3
 442.603 685.217 442.603 685.217 437.969 659.281 c 1,4,-1
 437.969 242.719 l 1,5,-1
 500.906 242.719 l 2,6,7
 516.432 242.719 516.432 242.719 527.419 231.731 c 128,-1,8
 538.406 220.744 538.406 220.744 538.406 205.219 c 128,-1,9
 538.406 189.693 538.406 189.693 527.419 178.706 c 128,-1,10
 516.432 167.719 516.432 167.719 500.906 167.719 c 2,11,-1
 437.969 167.719 l 1,12,-1
 437.969 41.4688 l 2,13,14
 437.969 25.9434 437.969 25.9434 426.981 14.9561 c 128,-1,15
 415.994 3.96875 415.994 3.96875 400.469 3.96875 c 128,-1,16
 384.944 3.96875 384.944 3.96875 373.956 14.9561 c 128,-1,17
 362.969 25.9434 362.969 25.9434 362.969 41.4688 c 2,18,-1
 362.969 167.719 l 1,19,-1
 115.031 167.719 l 2,20,21
 56.0537 167.719 56.0537 167.719 39.2959 200.645 c 128,-1,22
 22.5381 233.57 22.5381 233.57 50.0625 280.219 c 2,23,-1
 367.25 682.938 l 1,24,25
 372.687 693.301 372.687 693.301 383.031 698.75 c 2,26,-1
 384.219 699.375 l 2,27,28
 391.812 703.186 391.812 703.186 400.281 703.375 c 0,0,1
362.969 557.562 m 1,29,-1
 115 242.719 l 1,30,-1
 362.969 242.719 l 1,31,-1
 362.969 557.562 l 1,29,-1
EndSplineSet
EndChar
StartChar: five
Encoding: 53 53 22
Width: 536
GlyphClass: 2
Flags: W
Fore
89.8125 696.965 m 2,0,-1
 452.25 696.965 l 2,1,2
 467.774 696.965 467.774 696.965 478.763 685.978 c 128,-1,3
 489.75 674.989 489.75 674.989 489.75 659.465 c 128,-1,4
 489.75 643.939 489.75 643.939 478.763 632.952 c 128,-1,5
 467.775 621.965 467.775 621.965 452.25 621.965 c 2,6,-1
 126 621.965 l 1,7,-1
 126 433.158 l 1,8,-1
 251.5 433.939 l 2,9,10
 489.031 433.939 489.031 433.939 489.031 232.939 c 0,11,12
 489.031 116.021 489.031 116.021 436.839 58.0117 c 128,-1,13
 384.646 0.00195312 384.646 0.00195312 263.562 0.00195312 c 0,14,15
 200.462 0.00195312 200.462 0.00195312 157.96 8.66016 c 128,-1,16
 115.458 17.3184 115.458 17.3184 92.8135 34.7764 c 128,-1,17
 70.1689 52.2344 70.1689 52.2344 61.1318 73.7705 c 128,-1,18
 52.0938 95.3057 52.0938 95.3057 52.0938 125.689 c 0,19,20
 52.0928 141.215 52.0928 141.215 63.0811 152.202 c 128,-1,21
 74.0674 163.189 74.0674 163.189 89.5938 163.189 c 0,22,23
 102.016 163.189 102.016 163.189 111.856 155.859 c 128,-1,24
 121.698 148.529 121.698 148.529 125.344 137.002 c 1,25,26
 125.344 122.543 125.344 122.543 126.24 116.112 c 128,-1,27
 127.138 109.683 127.138 109.683 133.802 99.749 c 128,-1,28
 140.467 89.8154 140.467 89.8154 154.3 85.6191 c 128,-1,29
 168.133 81.4219 168.133 81.4219 195.077 77.9775 c 128,-1,30
 222.022 74.5332 222.022 74.5332 262.406 74.5332 c 0,31,32
 343.603 74.5605 343.603 74.5605 379.051 109.969 c 128,-1,33
 414.5 145.377 414.5 145.377 414.5 230.814 c 0,34,35
 414.5 358.439 414.5 358.439 276.844 358.439 c 2,36,-1
 89.8125 358.158 l 2,37,38
 73.4971 358.898 73.4971 358.898 62.7354 370.205 c 128,-1,39
 51.9717 381.513 51.9717 381.513 51 397.846 c 2,40,-1
 51 657.277 l 2,41,42
 51.9717 673.609 51.9717 673.609 62.7344 684.917 c 128,-1,43
 73.4971 696.225 73.4971 696.225 89.8125 696.965 c 2,0,-1
EndSplineSet
EndChar
StartChar: six
Encoding: 54 54 23
Width: 514
GlyphClass: 2
Flags: W
Fore
258.188 692.748 m 0,0,1
 312.524 692.748 312.524 692.748 354.909 672.756 c 128,-1,2
 397.294 652.764 397.294 652.764 420.744 621.122 c 128,-1,3
 444.194 589.479 444.194 589.479 455.926 555.658 c 128,-1,4
 467.656 521.837 467.656 521.837 467.656 489.061 c 0,5,6
 467.657 473.535 467.657 473.535 456.671 462.548 c 128,-1,7
 445.683 451.561 445.683 451.561 430.156 451.561 c 0,8,9
 417.736 451.561 417.736 451.561 407.896 458.891 c 128,-1,10
 398.054 466.221 398.054 466.221 394.406 477.748 c 1,11,12
 394.406 537.056 394.406 537.056 360.099 577.637 c 128,-1,13
 325.79 618.217 325.79 618.217 259.345 618.217 c 0,14,15
 232.767 618.217 232.767 618.217 212.747 612.249 c 128,-1,16
 192.728 606.28 192.728 606.28 178.573 596.659 c 128,-1,17
 164.419 587.038 164.419 587.038 154.901 568.107 c 128,-1,18
 145.382 549.178 145.382 549.178 139.825 530.302 c 128,-1,19
 134.269 511.426 134.269 511.426 131.422 479.432 c 128,-1,20
 128.576 447.438 128.576 447.438 127.788 419.204 c 128,-1,21
 127 390.972 127 390.972 127 346.279 c 1,22,23
 146.933 362.256 146.933 362.256 185.757 371.83 c 128,-1,24
 224.581 381.404 224.581 381.404 261.188 381.404 c 0,25,26
 301.952 381.404 301.952 381.404 338.695 370.377 c 128,-1,27
 375.438 359.35 375.438 359.35 405.737 337.654 c 128,-1,28
 436.036 315.958 436.036 315.958 453.94 279.356 c 128,-1,29
 471.845 242.755 471.845 242.755 471.845 195.873 c 0,30,31
 471.845 144.507 471.845 144.507 453.957 105.254 c 128,-1,32
 436.069 66.002 436.069 66.002 405.508 43.3457 c 128,-1,33
 374.946 20.6904 374.946 20.6904 338.358 9.51562 c 128,-1,34
 301.771 -1.6582 301.771 -1.6582 260.47 -1.6582 c 0,35,36
 170.317 -1.6582 170.317 -1.6582 114.582 55.1797 c 128,-1,37
 58.8467 112.018 58.8467 112.018 53.9062 208.998 c 2,38,-1
 52.2197 421.217 l 2,39,40
 52.2197 568.054 52.2197 568.054 104.608 630.4 c 128,-1,41
 156.997 692.748 156.997 692.748 258.188 692.748 c 0,0,1
262.345 306.873 m 0,42,43
 198.415 306.873 198.415 306.873 163.13 288.001 c 128,-1,44
 127.845 269.13 127.845 269.13 127.845 235.873 c 0,45,46
 127.845 165.987 127.845 165.987 165.938 119.352 c 128,-1,47
 204.03 72.7168 204.03 72.7168 260.688 72.7168 c 0,48,49
 397.221 72.7168 397.221 72.7168 397.22 195.873 c 0,50,51
 397.22 306.873 397.22 306.873 262.345 306.873 c 0,42,43
EndSplineSet
EndChar
StartChar: seven
Encoding: 55 55 24
Width: 556
GlyphClass: 2
Flags: W
Fore
456.637 685.291 m 2,0,1
 515.614 685.291 515.614 685.291 532.372 652.365 c 128,-1,2
 549.13 619.439 549.13 619.439 521.605 572.791 c 2,3,-1
 105.637 11.4785 l 2,4,5
 97.874 -1.96582 97.874 -1.96582 82.8682 -5.98438 c 128,-1,6
 67.8623 -10.0039 67.8623 -10.0039 54.418 -2.24023 c 128,-1,7
 40.9727 5.52148 40.9727 5.52148 36.9541 20.5273 c 128,-1,8
 32.9355 35.5342 32.9355 35.5342 40.6992 48.9785 c 2,9,-1
 456.668 610.291 l 1,10,-1
 70.7617 610.291 l 2,11,12
 55.2363 610.291 55.2363 610.291 44.249 621.278 c 128,-1,13
 33.2617 632.266 33.2617 632.266 33.2617 647.791 c 128,-1,14
 33.2617 663.316 33.2617 663.316 44.249 674.304 c 128,-1,15
 55.2363 685.291 55.2363 685.291 70.7617 685.291 c 2,16,-1
 456.637 685.291 l 2,0,1
EndSplineSet
EndChar
StartChar: eight
Encoding: 56 56 25
Width: 564
GlyphClass: 2
Flags: W
Fore
50.5 500.105 m 0,0,1
 50.5 593.526 50.5 593.526 111.73 645.144 c 128,-1,2
 172.96 696.762 172.96 696.762 278.062 696.762 c 0,3,4
 507.562 696.762 507.562 696.762 507.562 499.387 c 0,5,6
 507.562 449.45 507.562 449.45 489.677 409.244 c 128,-1,7
 471.79 369.037 471.79 369.037 439.188 346.918 c 1,8,9
 513.156 301.455 513.156 301.455 513.156 189.137 c 0,10,11
 513.156 94.5195 513.156 94.5195 453.721 47.2031 c 128,-1,12
 394.285 -0.113281 394.285 -0.113281 283.625 -0.113281 c 0,13,14
 179.339 -0.113281 179.339 -0.113281 113.716 47.7715 c 128,-1,15
 48.0938 95.6572 48.0938 95.6572 48.0938 189.855 c 0,16,17
 48.0938 238.061 48.0938 238.061 70.6719 277.895 c 128,-1,18
 93.251 317.729 93.251 317.729 129.812 341.98 c 1,19,20
 92.8721 364.029 92.8721 364.029 71.6855 405.68 c 128,-1,21
 50.5 447.33 50.5 447.33 50.5 500.105 c 0,0,1
125.062 501.262 m 0,22,23
 139.015 372.57 139.015 372.57 283.625 382.512 c 0,24,25
 420.707 381.964 420.707 381.964 433.188 499.605 c 0,26,27
 433.188 561.507 433.188 561.507 395.201 591.822 c 128,-1,28
 357.216 622.137 357.216 622.137 278.062 622.137 c 0,29,30
 125.062 622.137 125.062 622.137 125.062 501.262 c 0,22,23
122.625 191.012 m 0,31,32
 122.625 128.038 122.625 128.038 161.47 101.275 c 128,-1,33
 200.313 74.5117 200.313 74.5117 283.625 74.5117 c 0,34,35
 355.226 74.5117 355.226 74.5117 397.004 104.221 c 128,-1,36
 438.781 133.931 438.781 133.931 438.781 189.355 c 0,37,38
 423.518 315.945 423.518 315.945 278.062 306.137 c 0,39,40
 207.127 306.526 207.127 306.526 167.382 282.156 c 128,-1,41
 127.636 257.786 127.636 257.786 122.625 191.012 c 0,31,32
EndSplineSet
EndChar
StartChar: nine
Encoding: 57 57 26
Width: 496
GlyphClass: 2
Flags: W
Fore
239.175 0.522461 m 0,0,1
 152.296 0.522461 152.296 0.522461 108.706 48.335 c 0,2,3
 98.6289 58.8047 98.6289 58.8047 94.7275 63.2822 c 128,-1,4
 90.8271 67.7598 90.8271 67.7598 86.2666 77.0986 c 128,-1,5
 81.7061 86.4375 81.7061 86.4375 81.7061 96.21 c 0,6,7
 81.7051 111.735 81.7051 111.735 92.6924 122.723 c 128,-1,8
 103.68 133.71 103.68 133.71 119.206 133.71 c 0,9,10
 131.627 133.71 131.627 133.71 141.468 126.38 c 128,-1,11
 151.309 119.05 151.309 119.05 154.956 107.522 c 1,12,13
 178.079 75.0537 178.079 75.0537 238.019 75.0537 c 0,14,15
 272.528 75.0537 272.528 75.0537 294.165 81.7246 c 128,-1,16
 315.801 88.3945 315.801 88.3945 331.367 103.222 c 128,-1,17
 346.933 118.048 346.933 118.048 354.477 148.738 c 128,-1,18
 362.021 179.429 362.021 179.429 365.191 220.265 c 128,-1,19
 368.362 261.1 368.362 261.1 368.362 326.991 c 1,20,21
 348.268 310.886 348.268 310.886 311.293 301.376 c 128,-1,22
 274.316 291.866 274.316 291.866 238.175 291.866 c 0,23,24
 137.637 291.866 137.637 291.866 84.5771 342.979 c 128,-1,25
 31.5186 394.091 31.5186 394.091 31.5186 491.397 c 0,26,27
 31.5186 542.918 31.5186 542.918 48.8691 583.292 c 128,-1,28
 66.2207 623.665 66.2207 623.665 95.7676 647.898 c 128,-1,29
 125.316 672.132 125.316 672.132 161.718 684.53 c 128,-1,30
 198.119 696.929 198.119 696.929 238.894 696.929 c 0,31,32
 342.254 696.929 342.254 696.929 391.855 646.017 c 128,-1,33
 441.456 595.104 441.456 595.104 441.456 486.272 c 2,34,-1
 443.144 274.054 l 2,35,36
 443.144 191.953 443.144 191.953 429.734 137.275 c 128,-1,37
 416.325 82.5977 416.325 82.5977 388.453 53.1475 c 128,-1,38
 360.582 23.6973 360.582 23.6973 325.373 12.1094 c 128,-1,39
 290.163 0.522461 290.163 0.522461 239.175 0.522461 c 0,0,1
237.019 366.397 m 0,40,41
 307.301 366.397 307.301 366.397 337.41 384.561 c 128,-1,42
 367.519 402.724 367.519 402.724 367.519 459.397 c 0,43,44
 367.519 547.736 367.519 547.736 339.5 585.145 c 128,-1,45
 311.48 622.554 311.48 622.554 238.675 622.554 c 0,46,47
 214.194 622.554 214.194 622.554 192.67 616.65 c 128,-1,48
 171.146 610.747 171.146 610.747 150.66 597.076 c 128,-1,49
 130.174 583.405 130.174 583.405 118.158 556.312 c 128,-1,50
 106.143 529.217 106.143 529.217 106.144 491.397 c 0,51,52
 106.144 422.478 106.144 422.478 137.508 394.438 c 128,-1,53
 168.873 366.397 168.873 366.397 237.019 366.397 c 0,40,41
EndSplineSet
EndChar
StartChar: colon
Encoding: 58 58 27
Width: 248
GlyphClass: 2
Flags: W
Fore
150 403.256 m 128,-1,1
 150 387.731 150 387.731 139.013 376.743 c 128,-1,2
 128.025 365.756 128.025 365.756 112.5 365.756 c 128,-1,3
 96.9746 365.756 96.9746 365.756 85.9873 376.743 c 128,-1,4
 75 387.731 75 387.731 75 403.256 c 128,-1,5
 75 418.781 75 418.781 85.9873 429.769 c 128,-1,6
 96.9746 440.756 96.9746 440.756 112.5 440.756 c 128,-1,7
 128.025 440.756 128.025 440.756 139.013 429.769 c 128,-1,0
 150 418.781 150 418.781 150 403.256 c 128,-1,1
150 136.697 m 128,-1,9
 150 121.172 150 121.172 139.013 110.185 c 128,-1,10
 128.025 99.1973 128.025 99.1973 112.5 99.1973 c 128,-1,11
 96.9746 99.1973 96.9746 99.1973 85.9873 110.185 c 128,-1,12
 75 121.172 75 121.172 75 136.697 c 128,-1,13
 75 152.223 75 152.223 85.9873 163.21 c 128,-1,14
 96.9746 174.197 96.9746 174.197 112.5 174.197 c 128,-1,15
 128.025 174.197 128.025 174.197 139.013 163.21 c 128,-1,8
 150 152.223 150 152.223 150 136.697 c 128,-1,9
EndSplineSet
EndChar
StartChar: semicolon
Encoding: 59 59 28
Width: 244
GlyphClass: 2
Flags: W
Fore
156.351 443.256 m 128,-1,1
 156.351 427.731 156.351 427.731 145.363 416.743 c 128,-1,2
 134.376 405.756 134.376 405.756 118.851 405.756 c 128,-1,3
 103.326 405.756 103.326 405.756 92.3379 416.744 c 128,-1,4
 81.3506 427.731 81.3506 427.731 81.3506 443.256 c 128,-1,5
 81.3506 458.781 81.3506 458.781 92.3379 469.769 c 128,-1,6
 103.326 480.756 103.326 480.756 118.851 480.756 c 128,-1,7
 134.376 480.756 134.376 480.756 145.363 469.769 c 128,-1,0
 156.351 458.781 156.351 458.781 156.351 443.256 c 128,-1,1
118.837 212.156 m 128,-1,9
 134.361 212.156 134.361 212.156 145.35 201.169 c 128,-1,10
 156.337 190.182 156.337 190.182 156.337 174.656 c 2,11,-1
 156.337 38.6562 l 2,12,13
 156.337 23.1309 156.337 23.1309 145.35 12.1436 c 128,-1,14
 134.362 1.15625 134.362 1.15625 118.837 1.15625 c 128,-1,15
 103.312 1.15625 103.312 1.15625 92.3242 12.1436 c 128,-1,16
 81.3369 23.1309 81.3369 23.1309 81.3369 38.6562 c 2,17,-1
 81.3369 174.656 l 2,18,19
 81.3369 190.182 81.3369 190.182 92.3242 201.169 c 128,-1,8
 103.312 212.156 103.312 212.156 118.837 212.156 c 128,-1,9
EndSplineSet
EndChar
StartChar: less
Encoding: 60 60 29
Width: 486
GlyphClass: 2
Flags: W
Fore
25.3984 353.597 m 2,0,1
 10.5098 371.447 10.5098 371.447 25.3984 398.904 c 1,2,-1
 305.432 726.454 l 1,3,4
 313.195 739.902 313.195 739.902 328.199 743.933 c 128,-1,5
 343.203 747.963 343.203 747.963 356.65 740.204 c 128,-1,6
 370.094 732.442 370.094 732.442 374.113 717.42 c 128,-1,7
 378.133 702.398 378.133 702.398 370.369 688.954 c 1,8,-1
 101.5 371.204 l 1,9,-1
 370.369 55.3594 l 1,10,11
 378.133 41.9141 378.133 41.9141 374.113 26.9092 c 128,-1,12
 370.096 11.9033 370.096 11.9033 356.65 4.14062 c 128,-1,13
 343.205 -3.62207 343.205 -3.62207 328.199 0.396484 c 128,-1,14
 313.193 4.41504 313.193 4.41504 305.432 17.8594 c 1,15,-1
 25.3984 353.597 l 2,0,1
EndSplineSet
EndChar
StartChar: equal
Encoding: 61 61 30
Width: 542
GlyphClass: 2
Flags: W
Fore
59.2871 494.606 m 128,-1,1
 59.2871 510.132 59.2871 510.132 70.2754 521.119 c 128,-1,2
 81.2617 532.106 81.2617 532.106 96.7871 532.106 c 2,3,-1
 414.482 532.106 l 2,4,5
 430.008 532.106 430.008 532.106 440.996 521.119 c 128,-1,6
 451.982 510.132 451.982 510.132 451.982 494.606 c 128,-1,7
 451.982 479.082 451.982 479.082 440.996 468.094 c 128,-1,8
 430.008 457.106 430.008 457.106 414.482 457.106 c 2,9,-1
 96.7871 457.106 l 2,10,11
 81.2617 457.106 81.2617 457.106 70.2754 468.094 c 128,-1,0
 59.2871 479.082 59.2871 479.082 59.2871 494.606 c 128,-1,1
59.2871 258.217 m 128,-1,13
 59.2871 273.741 59.2871 273.741 70.2754 284.729 c 128,-1,14
 81.2617 295.717 81.2617 295.717 96.7871 295.717 c 2,15,-1
 414.482 295.717 l 2,16,17
 430.008 295.717 430.008 295.717 440.996 284.729 c 128,-1,18
 451.982 273.741 451.982 273.741 451.982 258.217 c 128,-1,19
 451.982 242.691 451.982 242.691 440.996 231.704 c 128,-1,20
 430.008 220.717 430.008 220.717 414.482 220.717 c 2,21,-1
 96.7871 220.717 l 2,22,23
 81.2617 220.717 81.2617 220.717 70.2754 231.704 c 128,-1,12
 59.2871 242.691 59.2871 242.691 59.2871 258.217 c 128,-1,13
EndSplineSet
EndChar
StartChar: greater
Encoding: 62 62 31
Width: 486
GlyphClass: 2
Flags: W
Fore
413.602 353.597 m 6,0,-1
 133.568 17.8594 l 5,1,2
 125.807 4.41504 125.807 4.41504 110.801 0.396484 c 132,-1,3
 95.7949 -3.62207 95.7949 -3.62207 82.3496 4.14062 c 132,-1,4
 68.9043 11.9033 68.9043 11.9033 64.8867 26.9092 c 132,-1,5
 60.8672 41.9141 60.8672 41.9141 68.6309 55.3594 c 5,6,-1
 337.5 371.204 l 5,7,-1
 68.6309 688.954 l 5,8,9
 60.8672 702.398 60.8672 702.398 64.8867 717.42 c 132,-1,10
 68.9062 732.442 68.9062 732.442 82.3496 740.204 c 132,-1,11
 95.7969 747.963 95.7969 747.963 110.801 743.933 c 132,-1,12
 125.805 739.902 125.805 739.902 133.568 726.454 c 5,13,-1
 413.602 398.904 l 5,14,15
 428.49 371.447 428.49 371.447 413.602 353.597 c 6,0,-1
EndSplineSet
EndChar
StartChar: question
Encoding: 63 63 32
Width: 582
GlyphClass: 2
Flags: W
Fore
273.803 716.543 m 4,0,1
 312.121 716.543 312.121 716.543 347.152 706.692 c 132,-1,2
 382.182 696.842 382.182 696.842 412.5 676.75 c 132,-1,3
 442.816 656.658 442.816 656.658 460.902 621.109 c 132,-1,4
 478.988 585.561 478.988 585.561 478.988 539.012 c 4,5,6
 478.988 380.855 478.988 380.855 329.613 380.855 c 4,7,8
 290.912 380.855 290.912 380.855 271.859 372.335 c 132,-1,9
 252.809 363.815 252.809 363.815 242.711 336.101 c 132,-1,10
 232.613 308.387 232.613 308.387 232.613 252.355 c 4,11,12
 232.613 227.985 232.613 227.985 213.98 218.552 c 132,-1,13
 195.348 209.118 195.348 209.118 176.715 219.69 c 132,-1,14
 158.084 230.263 158.084 230.263 158.084 254.48 c 4,15,16
 158.084 316.022 158.084 316.022 168.66 356.05 c 132,-1,17
 179.236 396.076 179.236 396.076 202.332 417.652 c 132,-1,18
 225.426 439.228 225.426 439.228 255.09 447.354 c 132,-1,19
 284.756 455.48 284.756 455.48 329.613 455.48 c 4,20,21
 369.109 455.48 369.109 455.48 386.486 479.64 c 132,-1,22
 403.863 503.8 403.863 503.8 403.863 536.105 c 4,23,24
 403.863 642.012 403.863 642.012 272.645 642.012 c 4,25,26
 189.285 642.012 189.285 642.012 167.434 629.65 c 132,-1,27
 145.584 617.29 145.584 617.29 145.584 563.543 c 5,28,29
 141.938 552.016 141.938 552.016 132.096 544.686 c 132,-1,30
 122.254 537.355 122.254 537.355 109.834 537.355 c 4,31,32
 94.3066 537.355 94.3066 537.355 83.3203 548.343 c 132,-1,33
 72.332 559.33 72.332 559.33 72.334 574.855 c 4,34,35
 72.334 654.246 72.334 654.246 114.611 685.395 c 132,-1,36
 156.891 716.543 156.891 716.543 273.803 716.543 c 4,0,1
232.752 44.5635 m 132,-1,38
 232.752 29.0381 232.752 29.0381 221.766 18.0508 c 132,-1,39
 210.777 7.06348 210.777 7.06348 195.252 7.06348 c 132,-1,40
 179.729 7.06348 179.729 7.06348 168.74 18.0508 c 132,-1,41
 157.752 29.0391 157.752 29.0391 157.752 44.5635 c 132,-1,42
 157.752 60.0879 157.752 60.0879 168.74 71.0752 c 132,-1,43
 179.729 82.0635 179.729 82.0635 195.252 82.0635 c 132,-1,44
 210.777 82.0635 210.777 82.0635 221.766 71.0762 c 132,-1,37
 232.752 60.0889 232.752 60.0889 232.752 44.5635 c 132,-1,38
EndSplineSet
EndChar
StartChar: at
Encoding: 64 64 33
Width: 823
GlyphClass: 2
Flags: W
Fore
401.812 643.156 m 0,0,1
 587.486 643.156 587.486 643.156 683.414 541.992 c 128,-1,2
 779.342 440.828 779.342 440.828 779.342 245.188 c 0,3,4
 779.342 91.9727 779.342 91.9727 733.777 -0.0292969 c 128,-1,5
 688.213 -92.0312 688.213 -92.0312 613.717 -92.0312 c 0,6,7
 558.219 -92.0312 558.219 -92.0312 524.953 -68.7959 c 128,-1,8
 491.688 -45.5596 491.688 -45.5596 491.688 -11.7188 c 2,9,-1
 491.688 45.9375 l 1,10,11
 472.109 30.501 472.109 30.501 453.82 26.0322 c 128,-1,12
 435.531 21.5625 435.531 21.5625 402.438 21.5625 c 0,13,14
 324.719 21.5625 324.719 21.5625 280.248 84.8057 c 128,-1,15
 235.779 148.05 235.779 148.05 235.781 253.094 c 0,16,17
 235.781 369.478 235.781 369.478 276.084 424.051 c 128,-1,18
 316.387 478.625 316.387 478.625 403.154 478.625 c 0,19,20
 484.877 478.625 484.877 478.625 525.641 420.881 c 128,-1,21
 566.404 363.137 566.404 363.137 566.404 253.094 c 2,22,-1
 566.688 24.2812 l 2,23,24
 566.066 8.36621 566.066 8.36621 580.15 -3.81641 c 128,-1,25
 594.234 -16 594.234 -16 611.312 -16 c 0,26,27
 652.18 -16 652.18 -16 678.496 56.7246 c 128,-1,28
 704.812 129.45 704.812 129.45 704.812 244.031 c 0,29,30
 704.812 394.334 704.812 394.334 625.996 481.433 c 128,-1,31
 547.182 568.531 547.182 568.531 396.998 568.531 c 0,32,33
 270.188 568.531 270.188 568.531 205.094 486.12 c 128,-1,34
 140 403.709 140 403.709 140 244.031 c 0,35,36
 140 178.643 140 178.643 153.35 129.523 c 128,-1,37
 166.699 80.4053 166.699 80.4053 186.42 54.2656 c 128,-1,38
 206.139 28.125 206.139 28.125 225.934 10.9824 c 128,-1,39
 245.73 -6.16016 245.73 -6.16016 261.521 -18.8584 c 128,-1,40
 277.312 -31.5566 277.312 -31.5566 279.904 -42.5312 c 1,41,42
 279.904 -57.3916 279.904 -57.3916 267.365 -66.7119 c 128,-1,43
 254.824 -76.0312 254.824 -76.0312 238.404 -76.0312 c 0,44,45
 220.658 -76.0312 220.658 -76.0312 199.021 -65.0449 c 128,-1,46
 177.385 -54.0586 177.385 -54.0586 153.551 -28.6377 c 128,-1,47
 129.717 -3.2168 129.717 -3.2168 110.281 32.6143 c 128,-1,48
 90.8477 68.4443 90.8477 68.4443 78.1582 124.081 c 128,-1,49
 65.4688 179.717 65.4688 179.717 65.4688 245.188 c 0,50,51
 65.4688 424.243 65.4688 424.243 154.037 533.699 c 128,-1,52
 242.607 643.156 242.607 643.156 401.812 643.156 c 0,0,1
402.938 404.25 m 0,53,54
 351.928 404.25 351.928 404.25 331.166 369.122 c 128,-1,55
 310.404 333.994 310.404 333.994 310.404 253.094 c 0,56,57
 310.404 172.863 310.404 172.863 332.695 134.479 c 128,-1,58
 354.986 96.0938 354.986 96.0938 401.281 96.0938 c 0,59,60
 439.176 96.0938 439.176 96.0938 457.125 104.927 c 128,-1,61
 475.074 113.76 475.074 113.76 483.428 140.004 c 128,-1,62
 491.779 166.249 491.779 166.249 491.781 221.094 c 0,63,64
 491.781 322.701 491.781 322.701 471.594 363.476 c 128,-1,65
 451.406 404.25 451.406 404.25 402.938 404.25 c 0,53,54
EndSplineSet
EndChar
StartChar: bracketleft
Encoding: 91 91 60
Width: 394
GlyphClass: 2
Flags: W
Fore
101.812 745.969 m 2,0,-1
 247.5 745.969 l 2,1,2
 263.025 745.969 263.025 745.969 274.014 734.981 c 128,-1,3
 285 723.994 285 723.994 285 708.469 c 128,-1,4
 285 692.943 285 692.943 274.014 681.956 c 128,-1,5
 263.025 670.969 263.025 670.969 247.5 670.969 c 2,6,-1
 138 670.969 l 1,7,-1
 138 76.0938 l 1,8,-1
 247.5 76.0938 l 2,9,10
 263.025 76.0938 263.025 76.0938 274.014 65.1064 c 128,-1,11
 285 54.1191 285 54.1191 285 38.5938 c 128,-1,12
 285 23.0684 285 23.0684 274.014 12.0811 c 128,-1,13
 263.025 1.09375 263.025 1.09375 247.5 1.09375 c 2,14,-1
 101.812 1.09375 l 2,15,16
 87.1582 1.09375 87.1582 1.09375 74.3828 13.6807 c 0,17,18
 63 24.4541 63 24.4541 63 40.7812 c 2,19,-1
 63 706.281 l 2,20,21
 63 721.593 63 721.593 74.7363 733.922 c 0,22,23
 86.2012 745.969 86.2012 745.969 101.812 745.969 c 2,0,-1
EndSplineSet
EndChar
StartChar: backslash
Encoding: 92 92 61
Width: 622
GlyphClass: 2
Flags: W
Fore
82.3809 700.8 m 132,-1,1
 94.7793 710.143 94.7793 710.143 110.166 707.98 c 132,-1,2
 125.554 705.817 125.554 705.817 134.897 693.419 c 6,3,-1
 564.671 70.624 l 6,4,5
 574.015 58.2256 574.015 58.2256 571.852 42.8379 c 132,-1,6
 569.689 27.4512 569.689 27.4512 557.29 18.1074 c 132,-1,7
 544.892 8.76465 544.892 8.76465 529.504 10.9268 c 132,-1,8
 514.116 13.0889 514.116 13.0889 504.773 25.4883 c 6,9,-1
 75 648.282 l 6,10,11
 65.6572 660.682 65.6572 660.682 67.8193 676.068 c 132,-1,0
 69.9814 691.456 69.9814 691.456 82.3809 700.8 c 132,-1,1
EndSplineSet
EndChar
StartChar: bracketright
Encoding: 93 93 62
Width: 401
GlyphClass: 2
Flags: W
Fore
245.188 745.969 m 6,0,1
 260.799 745.969 260.799 745.969 272.264 733.922 c 4,2,3
 284 721.593 284 721.593 284 706.281 c 6,4,-1
 284 40.7812 l 6,5,6
 284 24.4541 284 24.4541 272.617 13.6807 c 4,7,8
 259.842 1.09375 259.842 1.09375 245.188 1.09375 c 6,9,-1
 99.5 1.09375 l 6,10,11
 83.9746 1.09375 83.9746 1.09375 72.9863 12.0811 c 132,-1,12
 62 23.0684 62 23.0684 62 38.5938 c 132,-1,13
 62 54.1191 62 54.1191 72.9863 65.1064 c 132,-1,14
 83.9746 76.0938 83.9746 76.0938 99.5 76.0938 c 6,15,-1
 209 76.0938 l 5,16,-1
 209 670.969 l 5,17,-1
 99.5 670.969 l 6,18,19
 83.9746 670.969 83.9746 670.969 72.9863 681.956 c 132,-1,20
 62 692.943 62 692.943 62 708.469 c 132,-1,21
 62 723.994 62 723.994 72.9863 734.981 c 132,-1,22
 83.9746 745.969 83.9746 745.969 99.5 745.969 c 6,23,-1
 245.188 745.969 l 6,0,1
EndSplineSet
EndChar
StartChar: asciicircum
Encoding: 94 94 63
Width: 436
GlyphClass: 2
Flags: W
Fore
221.652 793.212 m 1,0,1
 242.65 806.392 242.65 806.392 266.959 793.212 c 1,2,-1
 412.51 613.179 l 2,3,4
 415.758 609.162 415.758 609.162 422.102 599.072 c 0,5,6
 424.682 594.973 424.682 594.973 428.021 587.588 c 128,-1,7
 431.361 580.205 431.361 580.205 430.674 574.312 c 128,-1,8
 429.988 568.418 429.988 568.418 426.26 561.96 c 0,9,10
 418.498 548.517 418.498 548.517 403.475 544.496 c 128,-1,11
 388.453 540.477 388.453 540.477 375.01 548.241 c 1,12,-1
 239.26 711.111 l 1,13,-1
 111.414 548.241 l 1,14,15
 97.9707 540.478 97.9707 540.478 82.9648 544.497 c 128,-1,16
 67.959 548.516 67.959 548.516 60.1953 561.96 c 1,17,18
 54.1836 577.61 54.1836 577.61 57.4512 587.079 c 0,19,20
 61.0449 597.496 61.0449 597.496 73.9141 613.179 c 2,21,-1
 221.652 793.212 l 1,0,1
EndSplineSet
EndChar
StartChar: underscore
Encoding: 95 95 64
Width: 564
GlyphClass: 2
Flags: W
Fore
32.293 36.3428 m 128,-1,1
 32.293 51.8682 32.293 51.8682 43.2793 62.8555 c 128,-1,2
 54.2676 73.8428 54.2676 73.8428 69.791 73.8428 c 2,3,-1
 463.488 73.8428 l 2,4,5
 479.014 73.8428 479.014 73.8428 490 62.8555 c 128,-1,6
 500.988 51.8682 500.988 51.8682 500.988 36.3428 c 128,-1,7
 500.988 20.8174 500.988 20.8174 490 9.83008 c 128,-1,8
 479.014 -1.15723 479.014 -1.15723 463.488 -1.15723 c 2,9,-1
 69.791 -1.15723 l 2,10,11
 54.2676 -1.15723 54.2676 -1.15723 43.2793 9.83008 c 128,-1,0
 32.293 20.8174 32.293 20.8174 32.293 36.3428 c 128,-1,1
EndSplineSet
EndChar
StartChar: grave
Encoding: 96 96 65
Width: 418
GlyphClass: 2
Flags: W
Fore
81.7383 695.021 m 128,-1,1
 89.7344 708.328 89.7344 708.328 104.812 712.087 c 0,2,3
 120.189 715.922 120.189 715.922 133.195 707.851 c 2,4,-1
 316.182 594.296 l 2,5,6
 329.564 585.99 329.564 585.99 333.248 571.223 c 0,7,8
 337.008 556.146 337.008 556.146 329.01 542.838 c 128,-1,9
 321.014 529.531 321.014 529.531 305.936 525.772 c 0,10,11
 290.559 521.938 290.559 521.938 277.553 530.008 c 2,12,-1
 94.5664 643.562 l 2,13,14
 81.1816 651.869 81.1816 651.869 77.5 666.637 c 0,15,0
 73.7402 681.713 73.7402 681.713 81.7383 695.021 c 128,-1,1
EndSplineSet
EndChar
StartChar: a
Encoding: 97 97 66
Width: 418
GlyphClass: 2
Flags: W
Fore
339.406 -13.207 m 128,-1,1
 323.881 -13.207 323.881 -13.207 312.895 -2.21973 c 128,-1,2
 301.907 8.76758 301.907 8.76758 301.906 24.293 c 2,3,-1
 301.906 33.9492 l 1,4,5
 278.645 15.6084 278.645 15.6084 259.819 7.5918 c 128,-1,6
 240.994 -0.425781 240.994 -0.425781 212.656 -0.425781 c 0,7,8
 134.631 -0.425781 134.631 -0.425781 90.3145 61.0469 c 128,-1,9
 45.999 122.521 45.999 122.521 46 227.105 c 0,10,11
 46 344.019 46 344.019 86.4922 400.328 c 128,-1,12
 126.983 456.637 126.983 456.637 213.375 456.637 c 0,13,14
 294.772 456.637 294.772 456.637 335.698 397.147 c 128,-1,15
 376.624 337.659 376.624 337.659 376.625 227.105 c 2,16,-1
 376.906 24.293 l 2,17,18
 376.905 8.76758 376.905 8.76758 365.918 -2.21973 c 128,-1,0
 354.932 -13.207 354.932 -13.207 339.406 -13.207 c 128,-1,1
211.5 74.1055 m 0,19,20
 263.55 74.1055 263.55 74.1055 282.774 108.719 c 128,-1,21
 301.999 143.331 301.999 143.331 302 227.105 c 0,22,23
 302 382.262 302 382.262 213.156 382.262 c 0,24,25
 162.454 382.262 162.454 382.262 141.539 345.432 c 128,-1,26
 120.624 308.602 120.624 308.602 120.625 227.105 c 0,27,28
 120.625 147.389 120.625 147.389 142.759 110.747 c 128,-1,29
 164.893 74.1055 164.893 74.1055 211.5 74.1055 c 0,19,20
EndSplineSet
KernsSLIFO: 75 -48 0 0 15 -84 0 0 13 -388 0 0
EndChar
StartChar: b
Encoding: 98 98 67
Width: 440
GlyphClass: 2
Flags: W
Fore
86.5547 660.062 m 132,-1,1
 102.079 660.062 102.079 660.062 113.066 649.075 c 132,-1,2
 124.053 638.088 124.053 638.088 124.055 622.562 c 6,3,-1
 124.055 438.906 l 5,4,5
 167.652 473.281 167.652 473.281 223.305 473.281 c 4,6,7
 313.951 473.281 313.951 473.281 356.956 410.268 c 132,-1,8
 399.961 347.254 399.961 347.254 399.96 237.75 c 4,9,10
 399.96 117.641 399.96 117.641 358.887 58.9297 c 132,-1,11
 317.812 0.21875 317.812 0.21875 222.585 0.21875 c 4,12,13
 130.421 0.21875 130.421 0.21875 89.8789 61.5889 c 132,-1,14
 49.3359 122.958 49.3359 122.958 49.335 237.75 c 6,15,-1
 49.0547 622.562 l 6,16,17
 49.0557 638.089 49.0557 638.089 60.043 649.075 c 132,-1,0
 71.0293 660.062 71.0293 660.062 86.5547 660.062 c 132,-1,1
224.46 398.75 m 4,18,19
 163.517 398.75 163.517 398.75 143.738 362.069 c 132,-1,20
 123.961 325.388 123.961 325.388 123.96 237.75 c 4,21,22
 123.96 74.5938 123.96 74.5938 222.805 74.5938 c 4,23,24
 281.526 74.5938 281.526 74.5938 303.432 113.834 c 132,-1,25
 325.336 153.073 325.336 153.073 325.335 237.75 c 4,26,27
 325.335 321.07 325.335 321.07 302.668 359.91 c 132,-1,28
 280 398.75 280 398.75 224.46 398.75 c 4,18,19
EndSplineSet
KernsSLIFO: 75 -46 0 0 15 -108 0 0 13 -388 0 0
EndChar
StartChar: c
Encoding: 99 99 68
Width: 388
GlyphClass: 2
Flags: W
Fore
205.969 473.188 m 0,0,1
 279.537 473.188 279.537 473.188 315.362 453.44 c 128,-1,2
 351.187 433.694 351.187 433.694 351.187 401.562 c 0,3,4
 351.187 384.529 351.187 384.529 339.723 371.22 c 128,-1,5
 328.259 357.911 328.259 357.911 313.687 364.062 c 0,6,7
 306.903 365.88 306.903 365.88 299.06 372.046 c 128,-1,8
 291.216 378.212 291.216 378.212 283.866 383.827 c 128,-1,9
 276.518 389.441 276.518 389.441 256.615 394.049 c 128,-1,10
 236.713 398.656 236.713 398.656 207.125 398.656 c 0,11,12
 168.462 398.656 168.462 398.656 142.543 352.02 c 128,-1,13
 116.624 305.382 116.624 305.382 116.625 232.844 c 0,14,15
 116.625 159.648 116.625 159.648 141.435 115.746 c 128,-1,16
 166.244 71.8438 166.244 71.8438 207.125 71.8438 c 0,17,18
 241.465 71.8438 241.465 71.8438 260.321 77.3389 c 128,-1,19
 279.177 82.833 279.177 82.833 283.377 89.7568 c 128,-1,20
 287.577 96.6807 287.577 96.6807 295.685 104.575 c 128,-1,21
 303.791 112.469 303.791 112.469 317.687 115.75 c 1,22,23
 332.547 115.75 332.547 115.75 341.866 103.21 c 128,-1,24
 351.187 90.6699 351.187 90.6699 351.187 74.25 c 0,25,26
 351.187 -2.6875 351.187 -2.6875 205.969 -2.6875 c 0,27,28
 138.191 -2.6875 138.191 -2.6875 91.7031 65.0137 c 128,-1,29
 45.2148 132.715 45.2148 132.715 42 237.656 c 0,30,31
 42 339.548 42 339.548 89.7607 406.367 c 128,-1,32
 137.521 473.188 137.521 473.188 205.969 473.188 c 0,0,1
EndSplineSet
KernsSLIFO: 75 -46 0 0 15 -82 0 0 14 -210 0 0 13 -386 0 0
EndChar
StartChar: d
Encoding: 100 100 69
Width: 440
GlyphClass: 2
Flags: W
Fore
355.405 660.062 m 128,-1,1
 370.931 660.062 370.931 660.062 381.917 649.075 c 128,-1,2
 392.904 638.089 392.904 638.089 392.905 622.562 c 2,3,-1
 392.625 237.75 l 2,4,5
 392.624 122.958 392.624 122.958 352.081 61.5889 c 128,-1,6
 311.539 0.21875 311.539 0.21875 219.375 0.21875 c 0,7,8
 124.147 0.21875 124.147 0.21875 83.0732 58.9297 c 128,-1,9
 42 117.641 42 117.641 42 237.75 c 0,10,11
 41.999 347.254 41.999 347.254 85.0039 410.268 c 128,-1,12
 128.009 473.281 128.009 473.281 218.655 473.281 c 0,13,14
 274.308 473.281 274.308 473.281 317.905 438.906 c 1,15,-1
 317.905 622.562 l 2,16,17
 317.907 638.088 317.907 638.088 328.894 649.075 c 128,-1,0
 339.881 660.062 339.881 660.062 355.405 660.062 c 128,-1,1
217.5 398.75 m 0,18,19
 161.96 398.75 161.96 398.75 139.292 359.91 c 128,-1,20
 116.625 321.07 116.625 321.07 116.625 237.75 c 0,21,22
 116.624 153.073 116.624 153.073 138.528 113.834 c 128,-1,23
 160.434 74.5938 160.434 74.5938 219.155 74.5938 c 0,24,25
 318 74.5938 318 74.5938 318 237.75 c 0,26,27
 317.999 325.388 317.999 325.388 298.222 362.069 c 128,-1,28
 278.443 398.75 278.443 398.75 217.5 398.75 c 0,18,19
EndSplineSet
KernsSLIFO: 75 -52 0 0 15 -112 0 0 13 -394 0 0
EndChar
StartChar: e
Encoding: 101 101 70
Width: 438
GlyphClass: 2
Flags: W
Fore
225.969 479.188 m 0,0,1
 316.256 479.188 316.256 479.188 353.908 417.686 c 128,-1,2
 391.562 356.184 391.562 356.184 391.562 241.188 c 0,3,4
 391.562 225.662 391.562 225.662 380.574 214.675 c 128,-1,5
 369.588 203.688 369.588 203.688 354.062 203.688 c 2,6,-1
 117.781 203.688 l 1,7,8
 122.457 145.535 122.457 145.535 155.432 108.689 c 128,-1,9
 188.407 71.8438 188.407 71.8438 227.125 71.8438 c 0,10,11
 261.526 71.8438 261.526 71.8438 283.489 77.3457 c 128,-1,12
 305.452 82.8486 305.452 82.8486 313.334 89.749 c 128,-1,13
 321.217 96.6504 321.217 96.6504 332.603 104.583 c 128,-1,14
 343.988 112.516 343.988 112.516 357.688 115.75 c 1,15,16
 372.548 115.75 372.548 115.75 381.867 103.21 c 128,-1,17
 391.186 90.6699 391.186 90.6699 391.188 74.25 c 0,18,19
 391.188 34.957 391.188 34.957 344.969 16.1348 c 128,-1,20
 298.75 -2.6875 298.75 -2.6875 225.969 -2.6875 c 0,21,22
 156.127 -2.6875 156.127 -2.6875 100.631 66.3174 c 0,23,24
 43.5156 137.337 43.5156 137.337 42 237.656 c 0,25,26
 40.4424 340.731 40.4424 340.731 92.4609 411.012 c 0,27,28
 142.921 479.188 142.921 479.188 225.969 479.188 c 0,0,1
223.125 398.656 m 0,29,30
 176.516 398.656 176.516 398.656 152.236 367.683 c 128,-1,31
 127.958 336.709 127.958 336.709 119.75 278.688 c 1,32,-1
 318.406 278.688 l 1,33,34
 312.547 398.656 312.547 398.656 223.125 398.656 c 0,29,30
EndSplineSet
KernsSLIFO: 75 -52 0 0 15 -86 0 0 13 -390 0 0
EndChar
StartChar: f
Encoding: 102 102 71
Width: 358
GlyphClass: 2
Flags: W
Fore
221.25 659.281 m 0,0,1
 320.718 659.281 320.718 659.281 320.719 613.594 c 0,2,3
 320.72 598.707 320.72 598.707 315.068 591.478 c 0,4,5
 308.104 582.568 308.104 582.568 294.5 577.5 c 0,6,7
 279.217 571.807 279.217 571.807 259.326 578.562 c 0,8,9
 241.107 584.75 241.107 584.75 222.407 584.75 c 0,10,11
 200.214 584.75 200.214 584.75 190.06 567.195 c 128,-1,12
 179.823 549.513 179.823 549.513 179.907 503.75 c 2,13,-1
 180 453.125 l 1,14,-1
 281.719 453.125 l 2,15,16
 297.244 453.125 297.244 453.125 308.231 442.138 c 128,-1,17
 319.219 431.15 319.219 431.15 319.219 415.625 c 128,-1,18
 319.219 400.101 319.219 400.101 308.231 389.112 c 128,-1,19
 297.244 378.125 297.244 378.125 281.719 378.125 c 2,20,-1
 180.126 378.125 l 1,21,22
 180.246 310.742 180.246 310.742 180.499 170.902 c 128,-1,23
 180.751 31.0625 180.751 31.0625 180.75 31.0625 c 1,24,25
 180.751 15.5381 180.751 15.5381 169.764 4.55078 c 128,-1,26
 158.776 -6.4375 158.776 -6.4375 143.25 -6.4375 c 128,-1,27
 127.726 -6.4375 127.726 -6.4375 116.739 4.5498 c 128,-1,28
 105.766 15.4893 105.766 15.4893 105.75 31.0625 c 2,29,-1
 105.407 378.125 l 1,30,-1
 76 378.125 l 2,31,32
 60.4746 378.125 60.4746 378.125 49.4873 389.112 c 128,-1,33
 38.501 400.1 38.501 400.1 38.5 415.625 c 128,-1,34
 38.5 431.15 38.5 431.15 49.4873 442.138 c 128,-1,35
 60.4746 453.125 60.4746 453.125 76 453.125 c 2,36,-1
 105.344 453.125 l 1,37,-1
 105.282 505.75 l 2,38,39
 105.187 587.193 105.187 587.193 134.493 623.292 c 128,-1,40
 163.703 659.281 163.703 659.281 221.25 659.281 c 0,0,1
EndSplineSet
KernsSLIFO: 75 -42 0 0 15 -218 0 0 14 -118 0 0 13 -520 0 0
EndChar
StartChar: g
Encoding: 103 103 72
Width: 440
GlyphClass: 2
Flags: W
Fore
220.656 -183.908 m 0,0,1
 139.776 -183.908 139.776 -183.908 96.1885 -136.096 c 0,2,3
 86.1074 -125.622 86.1074 -125.622 82.208 -121.147 c 128,-1,4
 78.3096 -116.672 78.3096 -116.672 73.749 -107.333 c 128,-1,5
 69.1885 -97.9932 69.1885 -97.9932 69.1885 -88.2207 c 0,6,7
 69.1875 -72.6953 69.1875 -72.6953 80.1748 -61.708 c 128,-1,8
 91.1621 -50.7207 91.1621 -50.7207 106.688 -50.7207 c 0,9,10
 119.108 -50.7207 119.108 -50.7207 128.95 -58.0508 c 128,-1,11
 138.791 -65.3809 138.791 -65.3809 142.438 -76.9082 c 1,12,13
 165.56 -109.377 165.56 -109.377 219.5 -109.377 c 0,14,15
 277.748 -109.377 277.748 -109.377 298.003 -75.8359 c 128,-1,16
 318.259 -42.2959 318.259 -42.2959 319.844 36.5605 c 1,17,18
 276.021 1.43555 276.021 1.43555 219.656 1.43555 c 0,19,20
 142.111 1.43555 142.111 1.43555 92.5557 69.5713 c 128,-1,21
 43 137.707 43 137.707 43 236.967 c 0,22,23
 43 343.639 43 343.639 91.9961 409.068 c 128,-1,24
 140.992 474.498 140.992 474.498 220.375 474.498 c 0,25,26
 306.765 474.498 306.765 474.498 347.244 420.361 c 128,-1,27
 387.724 366.225 387.724 366.225 392.938 263.842 c 2,28,-1
 394.625 51.623 l 2,29,30
 394.625 -69.0732 394.625 -69.0732 354.362 -126.49 c 128,-1,31
 314.1 -183.908 314.1 -183.908 220.656 -183.908 c 0,0,1
218.5 75.9668 m 0,32,33
 279.443 75.9668 279.443 75.9668 299.222 112.648 c 128,-1,34
 318.999 149.33 318.999 149.33 319 236.967 c 0,35,36
 319 400.123 319 400.123 220.156 400.123 c 0,37,38
 174.467 400.123 174.467 400.123 146.046 357.256 c 128,-1,39
 117.624 314.389 117.624 314.389 117.625 236.967 c 0,40,41
 117.625 164.691 117.625 164.691 144.515 120.329 c 128,-1,42
 171.404 75.9668 171.404 75.9668 218.5 75.9668 c 0,32,33
EndSplineSet
KernsSLIFO: 75 62 0 0 15 -88 0 0 13 -392 0 0
EndChar
StartChar: h
Encoding: 104 104 73
Width: 446
GlyphClass: 2
Flags: W
Fore
89.5 662.062 m 128,-1,1
 105.026 662.062 105.026 662.062 116.014 651.075 c 128,-1,2
 127.001 640.089 127.001 640.089 127 624.562 c 2,3,-1
 127 447.875 l 1,4,5
 165.655 475.281 165.655 475.281 227.969 475.281 c 0,6,7
 318.408 475.281 318.408 475.281 360.516 412.476 c 128,-1,8
 402.624 349.669 402.624 349.669 402.625 239.75 c 2,9,-1
 401.469 37.0625 l 2,10,11
 401.47 21.5381 401.47 21.5381 390.481 10.5508 c 128,-1,12
 379.493 -0.4375 379.493 -0.4375 363.969 -0.4375 c 128,-1,13
 348.445 -0.4375 348.445 -0.4375 337.457 10.5508 c 128,-1,14
 326.468 21.5391 326.468 21.5391 326.469 37.0625 c 2,15,-1
 328 239.75 l 2,16,17
 328 323.607 328 323.607 306.207 362.179 c 128,-1,18
 284.415 400.75 284.415 400.75 229.125 400.75 c 0,19,20
 173.002 400.75 173.002 400.75 151.037 369.671 c 128,-1,21
 129.073 338.592 129.073 338.592 127 268.75 c 2,22,-1
 127.469 37.0625 l 2,23,24
 127.47 21.5371 127.47 21.5371 116.482 10.5498 c 128,-1,25
 105.495 -0.4375 105.495 -0.4375 89.9688 -0.4375 c 0,26,27
 76.5264 -0.4375 76.5264 -0.4375 66.2266 8.04004 c 128,-1,28
 55.9268 16.5166 55.9268 16.5166 53.25 29.4062 c 2,29,-1
 53.2188 29.5 l 1,30,-1
 52 624.562 l 2,31,32
 52.001 640.088 52.001 640.088 62.9883 651.075 c 128,-1,0
 73.9756 662.062 73.9756 662.062 89.5 662.062 c 128,-1,1
EndSplineSet
KernsSLIFO: 75 -50 0 0 15 -84 0 0 13 -388 0 0
EndChar
StartChar: i
Encoding: 105 105 74
Width: 172
GlyphClass: 2
Flags: W
Fore
130.211 631.188 m 128,-1,1
 130.211 615.662 130.211 615.662 119.224 604.675 c 128,-1,2
 108.236 593.688 108.236 593.688 92.7109 593.688 c 128,-1,3
 77.1855 593.688 77.1855 593.688 66.1982 604.675 c 128,-1,4
 55.2109 615.663 55.2109 615.663 55.2109 631.188 c 128,-1,5
 55.2109 646.713 55.2109 646.713 66.1982 657.7 c 128,-1,6
 77.1855 668.688 77.1855 668.688 92.7109 668.688 c 128,-1,7
 108.235 668.688 108.235 668.688 119.224 657.7 c 128,-1,0
 130.211 646.713 130.211 646.713 130.211 631.188 c 128,-1,1
92.7178 476.062 m 132,-1,9
 108.243 476.062 108.243 476.062 119.23 465.075 c 132,-1,10
 130.218 454.088 130.218 454.088 130.218 438.562 c 6,11,-1
 130.218 37.0625 l 6,12,13
 130.219 21.5381 130.219 21.5381 119.231 10.5508 c 132,-1,14
 108.243 -0.4375 108.243 -0.4375 92.7178 -0.4375 c 132,-1,15
 77.1934 -0.4375 77.1934 -0.4375 66.2061 10.5508 c 132,-1,16
 55.2178 21.5381 55.2178 21.5381 55.2178 37.0625 c 6,17,-1
 55.2178 438.562 l 6,18,19
 55.2188 454.088 55.2188 454.088 66.2061 465.075 c 132,-1,8
 77.1934 476.062 77.1934 476.062 92.7178 476.062 c 132,-1,9
EndSplineSet
KernsSLIFO: 75 -52 0 0 15 -88 0 0 13 -392 0 0
EndChar
StartChar: j
Encoding: 106 106 75
Width: 238
GlyphClass: 2
Flags: W
Fore
180.717 -31.8545 m 1,0,1
 180.717 -113.701 180.717 -113.701 152.362 -149.543 c 128,-1,2
 124.007 -185.385 124.007 -185.385 66.7471 -185.385 c 0,3,4
 -30.7207 -185.385 -30.7207 -185.385 -30.7207 -139.697 c 0,5,6
 -30.7217 -124.81 -30.7217 -124.81 -25.0713 -117.583 c 128,-1,7
 -19.4219 -110.355 -19.4219 -110.355 -4.50391 -103.607 c 0,8,9
 12.377 -98.5029 12.377 -98.5029 29.5361 -104.679 c 128,-1,10
 46.6943 -110.854 46.6943 -110.854 65.5918 -110.854 c 0,11,12
 87.4609 -110.854 87.4609 -110.854 96.7764 -93.5293 c 128,-1,13
 106.092 -76.2031 106.092 -76.2031 106.092 -29.8545 c 2,14,-1
 105.669 206.49 l 2,15,16
 105.246 442.834 105.246 442.834 105.247 442.834 c 1,17,18
 105.246 458.36 105.246 458.36 116.233 469.347 c 128,-1,19
 127.221 480.334 127.221 480.334 142.747 480.334 c 128,-1,20
 158.271 480.334 158.271 480.334 169.259 469.347 c 128,-1,21
 180.245 458.36 180.245 458.36 180.247 442.834 c 0,22,23
 180.247 -31.8545 180.247 -31.8545 180.717 -31.8545 c 1,0,1
180.829 631.188 m 128,-1,25
 180.829 615.663 180.829 615.663 169.842 604.675 c 128,-1,26
 158.854 593.688 158.854 593.688 143.329 593.688 c 128,-1,27
 127.805 593.688 127.805 593.688 116.817 604.676 c 128,-1,28
 105.829 615.663 105.829 615.663 105.829 631.188 c 128,-1,29
 105.829 646.712 105.829 646.712 116.817 657.7 c 128,-1,30
 127.806 668.688 127.806 668.688 143.329 668.688 c 128,-1,31
 158.854 668.688 158.854 668.688 169.842 657.7 c 128,-1,24
 180.829 646.713 180.829 646.713 180.829 631.188 c 128,-1,25
EndSplineSet
KernsSLIFO: 75 64 0 0 28 -40 0 0 15 -100 0 0 13 -404 0 0
EndChar
StartChar: k
Encoding: 107 107 76
Width: 404
GlyphClass: 2
Flags: W
Fore
75.1553 670.062 m 128,-1,1
 90.6807 670.062 90.6807 670.062 101.668 659.075 c 128,-1,2
 112.655 648.088 112.655 648.088 112.655 632.562 c 2,3,-1
 112.655 282.281 l 1,4,-1
 311.094 487.781 l 2,5,6
 321.876 498.947 321.876 498.947 337.417 499.211 c 128,-1,7
 352.958 499.475 352.958 499.475 364.125 488.688 c 128,-1,8
 375.29 477.905 375.29 477.905 375.554 462.365 c 128,-1,9
 375.817 446.824 375.817 446.824 365.031 435.656 c 2,10,-1
 219.781 285.25 l 1,11,-1
 387.969 60.5625 l 2,12,13
 397.311 48.1641 397.311 48.1641 395.15 32.7852 c 128,-1,14
 392.99 17.4053 392.99 17.4053 380.594 8.0625 c 128,-1,15
 368.193 -1.28027 368.193 -1.28027 352.816 0.879883 c 128,-1,16
 337.439 3.03906 337.439 3.03906 328.094 15.4375 c 2,17,-1
 167 230.625 l 1,18,-1
 112.655 174.344 l 1,19,-1
 112.655 35.0625 l 2,20,21
 112.657 19.5381 112.657 19.5381 101.669 8.5498 c 128,-1,22
 90.6807 -2.4375 90.6807 -2.4375 75.1553 -2.4375 c 128,-1,23
 59.6309 -2.4375 59.6309 -2.4375 48.6436 8.55078 c 128,-1,24
 37.6553 19.5381 37.6553 19.5381 37.6553 35.0625 c 2,25,-1
 37.6553 632.562 l 2,26,27
 37.6572 648.088 37.6572 648.088 48.6436 659.075 c 128,-1,0
 59.6309 670.062 59.6309 670.062 75.1553 670.062 c 128,-1,1
EndSplineSet
KernsSLIFO: 15 -74 0 0 14 -72 0 0 13 -378 0 0
EndChar
StartChar: l
Encoding: 108 108 77
Width: 170
GlyphClass: 2
Flags: W
Fore
90.9873 654.062 m 128,-1,1
 106.513 654.062 106.513 654.062 117.5 643.075 c 128,-1,2
 128.487 632.088 128.487 632.088 128.487 616.562 c 2,3,-1
 128.487 39.0625 l 2,4,5
 128.488 23.5381 128.488 23.5381 117.5 12.5508 c 128,-1,6
 106.512 1.5625 106.512 1.5625 90.9873 1.5625 c 128,-1,7
 75.4629 1.5625 75.4629 1.5625 64.4756 12.5508 c 128,-1,8
 53.4873 23.5381 53.4873 23.5381 53.4873 39.0625 c 2,9,-1
 53.4873 616.562 l 2,10,11
 53.4883 632.088 53.4883 632.088 64.4756 643.075 c 128,-1,0
 75.4629 654.062 75.4629 654.062 90.9873 654.062 c 128,-1,1
EndSplineSet
KernsSLIFO: 75 -52 0 0 15 -88 0 0 13 -392 0 0
EndChar
StartChar: m
Encoding: 109 109 78
Width: 596
GlyphClass: 2
Flags: W
Fore
185.922 465.281 m 4,0,1
 230.417 465.281 230.417 465.281 254.26 449.473 c 132,-1,2
 278.102 433.663 278.102 433.663 301.609 397.688 c 5,3,4
 324.414 433.59 324.414 433.59 347.749 449.436 c 132,-1,5
 371.084 465.281 371.084 465.281 416.234 465.281 c 4,6,7
 495.471 465.281 495.471 465.281 532.18 411.75 c 132,-1,8
 568.89 358.219 568.89 358.219 568.89 229.75 c 4,9,10
 568.89 37.0625 568.89 37.0625 567.734 37.0625 c 5,11,12
 567.735 21.5381 567.735 21.5381 556.747 10.5508 c 132,-1,13
 545.759 -0.4375 545.759 -0.4375 530.234 -0.4375 c 132,-1,14
 514.71 -0.4375 514.71 -0.4375 503.723 10.5508 c 132,-1,15
 492.612 21.6593 492.612 21.6593 492.734 37.0625 c 6,16,-1
 494.266 229.75 l 6,17,18
 495.026 325.456 495.026 325.456 478.775 358.886 c 4,19,20
 463.284 390.75 463.284 390.75 417.39 390.75 c 4,21,22
 369.752 390.75 369.752 390.75 354.618 365.161 c 4,23,24
 339.241 339.157 339.241 339.157 339.484 264.188 c 6,25,-1
 339.734 187.062 l 5,26,27
 330.331 148.371 330.331 148.371 300.328 149.625 c 4,28,29
 285.323 150.252 285.323 150.252 274.873 161.11 c 132,-1,30
 264.278 172.118 264.278 172.118 264.422 187.062 c 6,31,-1
 265.14 261.656 l 6,32,33
 265.855 335.974 265.855 335.974 250.7 364.023 c 4,34,35
 236.261 390.75 236.261 390.75 187.078 390.75 c 4,36,37
 138.674 390.75 138.674 390.75 124.626 359.024 c 4,38,39
 110.155 326.343 110.155 326.343 110.578 229.75 c 6,40,-1
 111 133.406 l 5,41,-1
 111.422 37.0625 l 6,42,43
 111.49 21.6046 111.49 21.6046 100.436 10.5498 c 132,-1,44
 89.4482 -0.4375 89.4482 -0.4375 73.9219 -0.4375 c 132,-1,45
 58.3975 -0.4375 58.3975 -0.4375 47.4102 10.5498 c 132,-1,46
 36.4238 21.5371 36.4238 21.5371 36.4219 37.0625 c 4,47,48
 36.4219 229.75 36.4219 229.75 35.9531 229.75 c 5,49,50
 35.9531 323.033 35.9531 323.033 51.873 374.484 c 132,-1,51
 67.7939 425.936 67.7939 425.936 99.1055 445.608 c 132,-1,52
 130.418 465.281 130.418 465.281 185.922 465.281 c 4,0,1
EndSplineSet
KernsSLIFO: 75 -52 0 0 15 -86 0 0 13 -390 0 0
EndChar
StartChar: n
Encoding: 110 110 79
Width: 434
GlyphClass: 2
Flags: W
Fore
219.845 465.281 m 4,0,1
 310.283 465.281 310.283 465.281 352.391 402.475 c 132,-1,2
 394.499 339.668 394.499 339.668 394.5 229.75 c 6,3,-1
 393.345 37.0625 l 6,4,5
 393.346 21.5381 393.346 21.5381 382.357 10.5508 c 132,-1,6
 371.369 -0.4375 371.369 -0.4375 355.845 -0.4375 c 132,-1,7
 340.32 -0.4375 340.32 -0.4375 329.332 10.5508 c 132,-1,8
 318.344 21.5381 318.344 21.5381 318.345 37.0625 c 6,9,-1
 319.875 229.75 l 6,10,11
 319.875 313.607 319.875 313.607 298.082 352.179 c 132,-1,12
 276.29 390.75 276.29 390.75 221 390.75 c 4,13,14
 160.31 390.75 160.31 390.75 141.404 354.427 c 132,-1,15
 122.499 318.103 122.499 318.103 122.5 229.75 c 6,16,-1
 123.345 37.0625 l 6,17,18
 123.346 21.5381 123.346 21.5381 112.357 10.5508 c 132,-1,19
 101.37 -0.4375 101.37 -0.4375 85.8447 -0.4375 c 132,-1,20
 70.3203 -0.4375 70.3203 -0.4375 59.333 10.5508 c 132,-1,21
 48.3457 21.5381 48.3457 21.5381 48.3447 37.0625 c 6,22,-1
 47.875 229.75 l 6,23,24
 47.875 465.281 47.875 465.281 219.845 465.281 c 4,0,1
EndSplineSet
KernsSLIFO: 75 -50 0 0 15 -84 0 0 13 -388 0 0
EndChar
StartChar: o
Encoding: 111 111 80
Width: 450
GlyphClass: 2
Flags: W
Fore
227.344 473.281 m 0,0,1
 319.028 473.281 319.028 473.281 366.514 409.333 c 128,-1,2
 414 345.384 414 345.384 414 237.75 c 0,3,4
 414 119.555 414 119.555 368.53 59.8867 c 128,-1,5
 323.061 0.21875 323.061 0.21875 226.625 0.21875 c 0,6,7
 133.364 0.21875 133.364 0.21875 88.3691 62.6084 c 128,-1,8
 43.375 124.998 43.375 124.998 43.375 237.75 c 0,9,10
 43.375 343.182 43.375 343.182 88.5488 408.231 c 128,-1,11
 133.722 473.281 133.722 473.281 227.344 473.281 c 0,0,1
228.5 398.75 m 0,12,13
 166.289 398.75 166.289 398.75 142.145 360.597 c 128,-1,14
 118 322.442 118 322.442 118 237.75 c 0,15,16
 118 163.973 118 163.973 145.295 119.283 c 128,-1,17
 172.591 74.5938 172.591 74.5938 226.844 74.5938 c 0,18,19
 286.769 74.5938 286.769 74.5938 313.072 115.12 c 128,-1,20
 339.375 155.646 339.375 155.646 339.375 237.75 c 0,21,22
 339.375 318.819 339.375 318.819 312.33 358.784 c 128,-1,23
 285.286 398.75 285.286 398.75 228.5 398.75 c 0,12,13
EndSplineSet
KernsSLIFO: 75 -46 0 0 15 -106 0 0 13 -388 0 0
EndChar
StartChar: p
Encoding: 112 112 81
Width: 436
GlyphClass: 2
Flags: W
Fore
86.0938 -185.544 m 132,-1,1
 70.5684 -185.544 70.5684 -185.544 59.5811 -174.557 c 132,-1,2
 48.5947 -163.569 48.5947 -163.569 48.5938 -148.044 c 6,3,-1
 48.875 236.769 l 6,4,5
 48.876 351.561 48.876 351.561 89.4189 412.931 c 132,-1,6
 129.961 474.3 129.961 474.3 222.125 474.3 c 4,7,8
 317.353 474.3 317.353 474.3 358.427 415.589 c 132,-1,9
 399.5 356.878 399.5 356.878 399.5 236.769 c 4,10,11
 399.501 127.266 399.501 127.266 356.496 64.251 c 132,-1,12
 313.491 1.2373 313.491 1.2373 222.844 1.2373 c 4,13,14
 167.193 1.2373 167.193 1.2373 123.594 35.6123 c 5,15,-1
 123.594 -148.044 l 6,16,17
 123.593 -163.569 123.593 -163.569 112.606 -174.557 c 132,-1,0
 101.619 -185.544 101.619 -185.544 86.0938 -185.544 c 132,-1,1
224 75.7686 m 4,18,19
 279.539 75.7686 279.539 75.7686 302.207 114.609 c 132,-1,20
 324.875 153.45 324.875 153.45 324.875 236.769 c 4,21,22
 324.876 321.446 324.876 321.446 302.972 360.686 c 132,-1,23
 281.066 399.925 281.066 399.925 222.344 399.925 c 4,24,25
 123.5 399.925 123.5 399.925 123.5 236.769 c 4,26,27
 123.501 149.132 123.501 149.132 143.278 112.45 c 132,-1,28
 163.057 75.7686 163.057 75.7686 224 75.7686 c 4,18,19
EndSplineSet
KernsSLIFO: 75 -46 0 0 15 -108 0 0 13 -388 0 0
EndChar
StartChar: q
Encoding: 113 113 82
Width: 460
GlyphClass: 2
Flags: W
Fore
355.406 -185.544 m 128,-1,1
 339.881 -185.544 339.881 -185.544 328.894 -174.557 c 128,-1,2
 317.907 -163.569 317.907 -163.569 317.906 -148.044 c 2,3,-1
 317.906 35.6123 l 1,4,5
 274.307 1.2373 274.307 1.2373 218.656 1.2373 c 0,6,7
 128.009 1.2373 128.009 1.2373 85.0039 64.251 c 128,-1,8
 41.999 127.266 41.999 127.266 42 236.769 c 0,9,10
 42 356.878 42 356.878 83.0732 415.589 c 128,-1,11
 124.147 474.3 124.147 474.3 219.375 474.3 c 0,12,13
 311.539 474.3 311.539 474.3 352.081 412.931 c 128,-1,14
 392.624 351.561 392.624 351.561 392.625 236.769 c 2,15,-1
 392.906 -148.044 l 2,16,17
 392.905 -163.569 392.905 -163.569 381.919 -174.557 c 128,-1,0
 370.932 -185.544 370.932 -185.544 355.406 -185.544 c 128,-1,1
217.5 75.7686 m 0,18,19
 278.443 75.7686 278.443 75.7686 298.222 112.45 c 128,-1,20
 317.999 149.132 317.999 149.132 318 236.769 c 0,21,22
 318 399.925 318 399.925 219.156 399.925 c 0,23,24
 160.434 399.925 160.434 399.925 138.528 360.686 c 128,-1,25
 116.624 321.446 116.624 321.446 116.625 236.769 c 0,26,27
 116.625 153.45 116.625 153.45 139.293 114.609 c 128,-1,28
 161.961 75.7686 161.961 75.7686 217.5 75.7686 c 0,18,19
EndSplineSet
KernsSLIFO: 75 66 0 0 28 -50 0 0 27 -40 0 0 15 -108 0 0 13 -412 0 0
EndChar
StartChar: r
Encoding: 114 114 83
Width: 418
GlyphClass: 2
Flags: W
Fore
46.875 239.75 m 1,0,1
 46.875 359.272 46.875 359.272 89.7637 417.277 c 128,-1,2
 132.652 475.281 132.652 475.281 226.844 475.281 c 0,3,4
 311.721 475.281 311.721 475.281 355.312 427.469 c 0,5,6
 365.391 416.998 365.391 416.998 369.291 412.521 c 128,-1,7
 373.19 408.045 373.19 408.045 377.752 398.706 c 128,-1,8
 382.312 389.366 382.312 389.366 382.312 379.594 c 0,9,10
 382.313 364.069 382.313 364.069 371.326 353.082 c 128,-1,11
 360.338 342.094 360.338 342.094 344.812 342.094 c 0,12,13
 332.391 342.094 332.391 342.094 322.55 349.424 c 128,-1,14
 312.709 356.754 312.709 356.754 309.062 368.281 c 1,15,16
 285.938 400.75 285.938 400.75 228 400.75 c 0,17,18
 166.295 400.75 166.295 400.75 143.897 363.13 c 128,-1,19
 121.5 325.511 121.5 325.511 121.5 239.75 c 2,20,-1
 121.922 138.406 l 1,21,-1
 122.344 37.0625 l 2,22,23
 122.345 21.5371 122.345 21.5371 111.357 10.5498 c 128,-1,24
 100.37 -0.4375 100.37 -0.4375 84.8438 -0.4375 c 128,-1,25
 69.3193 -0.4375 69.3193 -0.4375 58.332 10.5498 c 128,-1,26
 47.3457 21.5371 47.3457 21.5371 47.3438 37.0625 c 0,27,28
 47.3438 239.75 47.3438 239.75 46.875 239.75 c 1,0,1
EndSplineSet
KernsSLIFO: 75 -42 0 0 15 -338 0 0 13 -640 0 0
EndChar
StartChar: s
Encoding: 115 115 84
Width: 382
GlyphClass: 2
Flags: W
Fore
175.062 477.293 m 0,0,1
 215.637 477.293 215.637 477.293 251.315 464.649 c 128,-1,2
 286.995 452.007 286.995 452.007 307.53 429.48 c 0,3,4
 317.612 419.005 317.612 419.005 321.511 414.532 c 128,-1,5
 325.405 410.059 325.405 410.059 329.968 400.719 c 128,-1,6
 334.53 391.378 334.53 391.378 334.53 381.605 c 0,7,8
 334.53 366.081 334.53 366.081 323.542 355.094 c 128,-1,9
 312.554 344.105 312.554 344.105 297.03 344.105 c 0,10,11
 284.608 344.105 284.608 344.105 274.769 351.436 c 128,-1,12
 264.925 358.766 264.925 358.766 261.28 370.293 c 1,13,14
 238.16 402.762 238.16 402.762 176.219 402.762 c 0,15,16
 133.056 402.762 133.056 402.762 114.028 386.313 c 128,-1,17
 95 369.864 95 369.864 95 336.855 c 0,18,19
 95 309.459 95 309.459 116.864 293.845 c 128,-1,20
 138.729 278.23 138.729 278.23 181.25 278.23 c 0,21,22
 264.956 278.23 264.956 278.23 308.87 244.475 c 128,-1,23
 352.78 210.718 352.78 210.718 352.78 147.23 c 0,24,25
 352.78 71.0166 352.78 71.0166 313.397 38.5596 c 128,-1,26
 274.011 6.10254 274.011 6.10254 175.312 2.29297 c 0,27,28
 136.328 2.29297 136.328 2.29297 102.3 16.4482 c 128,-1,29
 68.2705 30.6035 68.2705 30.6035 46.8428 54.1055 c 0,30,31
 36.7646 64.5771 36.7646 64.5771 32.8643 69.0537 c 128,-1,32
 28.9648 73.5293 28.9648 73.5293 24.4033 82.8691 c 128,-1,33
 19.8428 92.209 19.8428 92.209 19.8428 101.98 c 0,34,35
 19.8418 117.505 19.8418 117.505 30.8291 128.493 c 128,-1,36
 41.8174 139.48 41.8174 139.48 57.3428 139.48 c 0,37,38
 69.7646 139.48 69.7646 139.48 79.6055 132.15 c 128,-1,39
 89.4463 124.82 89.4463 124.82 93.0928 113.293 c 1,40,41
 104.783 96.8789 104.783 96.8789 126.763 86.8516 c 128,-1,42
 148.741 76.8242 148.741 76.8242 174.156 76.8242 c 0,43,44
 230.125 76.8242 230.125 76.8242 254.187 91.7461 c 128,-1,45
 278.249 106.667 278.249 106.667 278.249 145.105 c 0,46,47
 278.249 176.479 278.249 176.479 256.276 190.042 c 128,-1,48
 234.305 203.605 234.305 203.605 181.25 203.605 c 0,49,50
 104.081 203.605 104.081 203.605 61.9775 240.549 c 128,-1,51
 19.875 277.492 19.875 277.492 19.875 339.762 c 0,52,53
 19.875 407.464 19.875 407.464 60.4619 442.379 c 128,-1,54
 101.049 477.293 101.049 477.293 175.062 477.293 c 0,0,1
EndSplineSet
KernsSLIFO: 75 -48 0 0 15 -88 0 0 13 -386 0 0
EndChar
StartChar: t
Encoding: 116 116 85
Width: 314
GlyphClass: 2
Flags: W
Fore
215.902 0.630859 m 0,0,1
 158.355 0.630859 158.355 0.630859 129.148 36.6211 c 128,-1,2
 99.9375 72.6113 99.9375 72.6113 99.9375 154.162 c 2,3,-1
 100 396.787 l 1,4,-1
 52.6523 396.787 l 2,5,6
 37.1289 396.787 37.1289 396.787 26.1406 407.775 c 128,-1,7
 15.1523 418.764 15.1523 418.764 15.1523 434.287 c 128,-1,8
 15.1562 449.813 15.1562 449.813 26.1406 460.8 c 128,-1,9
 37.1289 471.787 37.1289 471.787 52.6523 471.787 c 2,10,-1
 100.062 471.787 l 1,11,-1
 100.402 628.85 l 2,12,13
 100.406 644.376 100.406 644.376 111.391 655.362 c 128,-1,14
 122.379 666.35 122.379 666.35 137.902 666.35 c 128,-1,15
 153.43 666.35 153.43 666.35 164.418 655.362 c 128,-1,16
 175.406 644.375 175.406 644.375 175.402 628.85 c 2,17,-1
 175.387 627.651 l 2,18,19
 175.371 626.452 175.371 626.452 175.344 623.362 c 128,-1,20
 175.312 620.271 175.312 620.271 175.27 614.863 c 128,-1,21
 175.23 609.454 175.23 609.454 175.184 601.118 c 128,-1,22
 175.137 592.781 175.137 592.781 175.086 581.001 c 128,-1,23
 175.035 569.221 175.035 569.221 174.98 553.477 c 128,-1,24
 174.926 537.732 174.926 537.732 174.875 517.419 c 128,-1,25
 174.824 497.106 174.824 497.106 174.781 471.787 c 1,26,-1
 260.375 471.787 l 2,27,28
 275.898 471.787 275.898 471.787 286.887 460.8 c 128,-1,29
 297.875 449.812 297.875 449.812 297.875 434.287 c 128,-1,30
 297.875 418.764 297.875 418.764 286.887 407.775 c 128,-1,31
 275.898 396.787 275.898 396.787 260.375 396.787 c 2,32,-1
 174.652 396.787 l 1,33,-1
 174.562 156.162 l 2,34,35
 174.559 110.272 174.559 110.272 184.715 92.7168 c 128,-1,36
 194.867 75.1621 194.867 75.1621 217.062 75.1621 c 0,37,38
 235.758 75.1621 235.758 75.1621 253.98 81.3506 c 128,-1,39
 272.199 87.5391 272.199 87.5391 289.152 82.4121 c 0,40,41
 304.07 75.666 304.07 75.666 309.723 68.4355 c 128,-1,42
 315.375 61.2061 315.375 61.2061 315.375 46.3184 c 0,43,44
 315.371 0.630859 315.371 0.630859 215.902 0.630859 c 0,0,1
EndSplineSet
KernsSLIFO: 75 -40 0 0 15 -76 0 0 14 -116 0 0 13 -380 0 0
EndChar
StartChar: u
Encoding: 117 117 86
Width: 444
GlyphClass: 2
Flags: W
Fore
222.03 3.46875 m 0,0,1
 131.592 3.46875 131.592 3.46875 89.4844 66.2754 c 128,-1,2
 47.376 129.082 47.376 129.082 47.375 239 c 2,3,-1
 48.5303 431.688 l 2,4,5
 48.5293 447.212 48.5293 447.212 59.5176 458.199 c 128,-1,6
 70.5059 469.188 70.5059 469.188 86.0303 469.188 c 128,-1,7
 101.555 469.188 101.555 469.188 112.543 458.199 c 128,-1,8
 123.531 447.212 123.531 447.212 123.53 431.688 c 2,9,-1
 122 239 l 2,10,11
 122 155.143 122 155.143 143.793 116.571 c 128,-1,12
 165.585 78 165.585 78 220.875 78 c 0,13,14
 281.565 78 281.565 78 300.471 114.323 c 128,-1,15
 319.376 150.647 319.376 150.647 319.375 239 c 2,16,-1
 318.53 431.688 l 2,17,18
 318.529 447.212 318.529 447.212 329.518 458.199 c 128,-1,19
 340.505 469.188 340.505 469.188 356.03 469.188 c 128,-1,20
 371.555 469.188 371.555 469.188 382.542 458.199 c 128,-1,21
 393.529 447.212 393.529 447.212 393.53 431.688 c 2,22,-1
 394 239 l 2,23,24
 394 3.46875 394 3.46875 222.03 3.46875 c 0,0,1
EndSplineSet
KernsSLIFO: 75 -50 0 0 15 -108 0 0 13 -392 0 0
EndChar
StartChar: v
Encoding: 118 118 87
Width: 424
GlyphClass: 2
Flags: W
Fore
188.973 4.35742 m 1,0,1
 157.902 16.3262 157.902 16.3262 120.648 92.9561 c 128,-1,2
 83.3945 169.587 83.3945 169.587 56.8477 259.608 c 128,-1,3
 30.3008 349.629 30.3008 349.629 21.2344 416.391 c 2,4,5
 13.1523 444.336 13.1523 444.336 19.1172 458.483 c 128,-1,6
 25.082 472.63 25.082 472.63 40.0469 477.845 c 1,7,8
 55.875 487.738 55.875 487.738 69.8516 480.382 c 128,-1,9
 83.8281 473.025 83.8281 473.025 91.2656 454.036 c 1,10,11
 105.359 379.031 105.359 379.031 148.004 232.745 c 128,-1,12
 190.645 86.459 190.645 86.459 206.578 86.459 c 0,13,14
 222.773 86.459 222.773 86.459 273.512 241.033 c 128,-1,15
 324.25 395.608 324.25 395.608 330.977 457.447 c 1,16,17
 342.148 492.051 342.148 492.051 383.934 474.433 c 0,18,19
 421.262 458.693 421.262 458.693 403.828 409.567 c 1,20,21
 397.836 363.714 397.836 363.714 372 274.104 c 128,-1,22
 346.164 184.494 346.164 184.494 306.301 97.9678 c 128,-1,23
 266.441 11.4414 266.441 11.4414 234.281 4.35742 c 0,24,25
 230.875 3.6084 230.875 3.6084 224.234 1.86523 c 128,-1,26
 217.59 0.123047 217.59 0.123047 214.609 -0.382812 c 128,-1,27
 211.633 -0.888672 211.633 -0.888672 206.785 -1.13281 c 128,-1,28
 201.938 -1.37695 201.938 -1.37695 197.785 0.0292969 c 128,-1,29
 193.629 1.43555 193.629 1.43555 188.973 4.35742 c 1,0,1
EndSplineSet
KernsSLIFO: 15 -192 0 0 13 -452 0 0
EndChar
StartChar: w
Encoding: 119 119 88
Width: 594
GlyphClass: 2
Flags: W
Fore
417.047 -1.90625 m 0,0,1
 372.552 -1.90625 372.552 -1.90625 348.709 13.9023 c 128,-1,2
 324.867 29.7119 324.867 29.7119 301.359 65.6875 c 1,3,4
 278.555 29.7852 278.555 29.7852 255.22 13.9395 c 128,-1,5
 231.885 -1.90625 231.885 -1.90625 186.734 -1.90625 c 0,6,7
 107.498 -1.90625 107.498 -1.90625 70.7891 51.625 c 128,-1,8
 34.0791 105.156 34.0791 105.156 34.0791 233.625 c 0,9,10
 34.0791 426.312 34.0791 426.312 35.2344 426.312 c 1,11,12
 35.2334 441.837 35.2334 441.837 46.2217 452.824 c 128,-1,13
 57.21 463.812 57.21 463.812 72.7344 463.812 c 128,-1,14
 88.2588 463.812 88.2588 463.812 99.2461 452.824 c 128,-1,15
 110.356 441.716 110.356 441.716 110.234 426.312 c 2,16,-1
 108.703 233.625 l 2,17,18
 107.942 137.919 107.942 137.919 124.193 104.489 c 0,19,20
 139.685 72.625 139.685 72.625 185.579 72.625 c 0,21,22
 233.217 72.625 233.217 72.625 248.351 98.2139 c 0,23,24
 263.728 124.219 263.728 124.219 263.484 199.188 c 2,25,-1
 263.234 276.312 l 1,26,27
 272.638 315.004 272.638 315.004 302.641 313.75 c 0,28,29
 317.646 313.123 317.646 313.123 328.096 302.265 c 128,-1,30
 338.69 291.257 338.69 291.257 338.547 276.312 c 2,31,-1
 337.829 201.719 l 2,32,33
 337.114 127.4 337.114 127.4 352.269 99.3516 c 0,34,35
 366.708 72.625 366.708 72.625 415.891 72.625 c 0,36,37
 464.295 72.625 464.295 72.625 478.343 104.351 c 0,38,39
 492.813 137.032 492.813 137.032 492.391 233.625 c 2,40,-1
 491.969 329.969 l 1,41,-1
 491.547 426.312 l 2,42,43
 491.479 441.771 491.479 441.771 502.533 452.825 c 128,-1,44
 513.521 463.812 513.521 463.812 529.047 463.812 c 128,-1,45
 544.571 463.812 544.571 463.812 555.559 452.825 c 128,-1,46
 566.545 441.838 566.545 441.838 566.547 426.312 c 0,47,48
 566.547 233.625 566.547 233.625 567.016 233.625 c 1,49,50
 567.016 140.342 567.016 140.342 551.096 88.8906 c 128,-1,51
 535.175 37.4395 535.175 37.4395 503.863 17.7666 c 128,-1,52
 472.551 -1.90625 472.551 -1.90625 417.047 -1.90625 c 0,0,1
EndSplineSet
KernsSLIFO: 75 -52 0 0 15 -100 0 0 13 -392 0 0
EndChar
StartChar: x
Encoding: 120 120 89
Width: 464
GlyphClass: 2
Flags: W
Fore
59.2109 476.734 m 0,0,1
 81.5234 477.31 81.5234 477.31 92.6797 457.984 c 2,2,-1
 204.648 296.672 l 1,3,-1
 324.586 457.984 l 2,4,5
 332.352 471.433 332.352 471.433 347.355 475.464 c 128,-1,6
 362.359 479.494 362.359 479.494 375.805 471.734 c 128,-1,7
 389.25 463.972 389.25 463.972 393.27 448.951 c 128,-1,8
 397.289 433.93 397.289 433.93 389.523 420.484 c 2,9,-1
 247.035 238.423 l 1,10,-1
 389.523 54.8906 l 2,11,12
 397.289 41.4463 397.289 41.4463 393.27 26.4404 c 128,-1,13
 389.25 11.4336 389.25 11.4336 375.805 3.67188 c 128,-1,14
 362.359 -4.09082 362.359 -4.09082 347.355 -0.0722656 c 128,-1,15
 332.348 3.94629 332.348 3.94629 324.586 17.3906 c 2,16,-1
 204.648 174.703 l 1,17,-1
 92.6797 17.3906 l 2,18,19
 84.918 3.94629 84.918 3.94629 69.9141 -0.0722656 c 128,-1,20
 54.9062 -4.09082 54.9062 -4.09082 41.4609 3.67188 c 128,-1,21
 28.0195 11.4336 28.0195 11.4336 24 26.4404 c 128,-1,22
 19.9805 41.4463 19.9805 41.4463 27.7422 54.8906 c 2,23,-1
 159.07 232.1 l 1,24,-1
 27.7422 420.484 l 2,25,26
 19.9805 433.929 19.9805 433.929 24 448.951 c 128,-1,27
 28.0195 463.974 28.0195 463.974 41.4609 471.734 c 0,28,29
 49.6953 476.489 49.6953 476.489 59.2109 476.734 c 0,0,1
EndSplineSet
KernsSLIFO: 75 -44 0 0 15 -80 0 0 14 -88 0 0 13 -384 0 0
EndChar
StartChar: y
Encoding: 121 121 90
Width: 432
GlyphClass: 2
Flags: W
Fore
213.531 -187.542 m 0,0,1
 172.488 -187.542 172.488 -187.542 134.945 -174.793 c 128,-1,2
 97.4062 -162.044 97.4062 -162.044 77.0625 -139.729 c 0,3,4
 66.9844 -129.259 66.9844 -129.259 63.0859 -124.782 c 128,-1,5
 59.1836 -120.305 59.1836 -120.305 54.6211 -110.966 c 128,-1,6
 50.0625 -101.627 50.0625 -101.627 50.0625 -91.8545 c 0,7,8
 50.0625 -76.3291 50.0625 -76.3291 61.0508 -65.3418 c 128,-1,9
 72.0352 -54.3545 72.0352 -54.3545 87.5625 -54.3545 c 0,10,11
 99.9805 -54.3545 99.9805 -54.3545 109.824 -61.6846 c 128,-1,12
 119.664 -69.0146 119.664 -69.0146 123.312 -80.542 c 1,13,14
 134.293 -95.9619 134.293 -95.9619 159.582 -104.486 c 128,-1,15
 184.867 -113.011 184.867 -113.011 212.375 -113.011 c 0,16,17
 266.328 -113.011 266.328 -113.011 295.508 -77.624 c 128,-1,18
 324.688 -42.2383 324.688 -42.2383 324.688 27.8018 c 1,19,20
 286.031 0.364258 286.031 0.364258 221.656 0.364258 c 0,21,22
 131.215 0.364258 131.215 0.364258 89.1094 63.1719 c 128,-1,23
 47 125.979 47 125.979 47 235.896 c 2,24,-1
 48.1562 438.583 l 2,25,26
 48.1562 454.107 48.1562 454.107 59.1445 465.096 c 128,-1,27
 70.1328 476.083 70.1328 476.083 85.6562 476.083 c 128,-1,28
 101.18 476.083 101.18 476.083 112.168 465.096 c 128,-1,29
 123.156 454.107 123.156 454.107 123.156 438.583 c 2,30,-1
 121.625 235.896 l 2,31,32
 121.625 152.039 121.625 152.039 143.418 113.468 c 128,-1,33
 165.211 74.8955 165.211 74.8955 220.5 74.8955 c 0,34,35
 281.949 74.8955 281.949 74.8955 303.477 112.223 c 128,-1,36
 325 149.55 325 149.55 325 235.896 c 2,37,-1
 324.156 438.583 l 2,38,39
 324.156 454.108 324.156 454.108 335.145 465.096 c 128,-1,40
 346.129 476.083 346.129 476.083 361.656 476.083 c 128,-1,41
 377.371 476.083 377.371 476.083 389.262 465.007 c 128,-1,42
 401.152 453.931 401.152 453.931 401.156 438.583 c 2,43,-1
 401.5 79.9893 l 2,44,45
 401.5 -62.0049 401.5 -62.0049 356.027 -124.773 c 128,-1,46
 310.551 -187.542 310.551 -187.542 213.531 -187.542 c 0,0,1
EndSplineSet
KernsSLIFO: 75 64 0 0 15 -92 0 0 13 -396 0 0
EndChar
StartChar: z
Encoding: 122 122 91
Width: 402
GlyphClass: 2
Flags: W
Fore
62.1719 469 m 2,0,-1
 278.047 469 l 2,1,2
 338.602 469 338.602 469 358 439.856 c 128,-1,3
 377.402 410.713 377.402 410.713 345.016 370.5 c 2,4,-1
 122.891 77.5938 l 1,5,-1
 326.828 77.5938 l 2,6,7
 342.352 77.5938 342.352 77.5938 353.34 66.6064 c 128,-1,8
 364.328 55.6191 364.328 55.6191 364.328 40.0938 c 128,-1,9
 364.328 24.5684 364.328 24.5684 353.34 13.5811 c 128,-1,10
 342.355 2.59375 342.355 2.59375 326.828 2.59375 c 2,11,-1
 102.953 2.59375 l 1,12,-1
 102.922 2.59375 l 2,13,14
 -22.1484 2.59375 -22.1484 2.59375 37.9844 91.0938 c 2,15,-1
 266.078 394 l 1,16,-1
 62.1719 394 l 2,17,18
 46.6484 394 46.6484 394 35.6602 404.988 c 128,-1,19
 24.6719 415.976 24.6719 415.976 24.6719 431.5 c 128,-1,20
 24.6719 447.024 24.6719 447.024 35.6602 458.013 c 128,-1,21
 46.6484 469 46.6484 469 62.1719 469 c 2,0,-1
EndSplineSet
KernsSLIFO: 75 -42 0 0 15 -98 0 0 14 -76 0 0 13 -400 0 0
EndChar
StartChar: braceleft
Encoding: 123 123 92
Width: 430
GlyphClass: 2
Flags: W
Fore
176.391 697.969 m 2,0,-1
 310.078 697.969 l 2,1,2
 325.605 697.969 325.605 697.969 336.592 686.981 c 128,-1,3
 347.578 675.995 347.578 675.995 347.578 660.469 c 128,-1,4
 347.578 644.944 347.578 644.944 336.59 633.956 c 128,-1,5
 325.602 622.969 325.602 622.969 310.078 622.969 c 2,6,-1
 212.578 622.969 l 1,7,8
 212.529 538.471 212.529 538.471 213.598 481.722 c 128,-1,9
 214.666 424.974 214.666 424.974 206.553 392 c 128,-1,10
 198.439 359.026 198.439 359.026 176.283 349 c 1,11,12
 198.861 338.828 198.861 338.828 206.221 314.904 c 128,-1,13
 213.58 290.98 213.58 290.98 213.432 234.035 c 128,-1,14
 213.283 177.091 213.283 177.091 212.578 76.0938 c 1,15,-1
 310.078 76.0938 l 2,16,17
 325.605 76.0938 325.605 76.0938 336.592 65.1064 c 128,-1,18
 347.578 54.1191 347.578 54.1191 347.578 38.5938 c 128,-1,19
 347.578 23.0693 347.578 23.0693 336.59 12.0811 c 128,-1,20
 325.602 1.09375 325.602 1.09375 310.078 1.09375 c 2,21,-1
 176.391 1.09375 l 2,22,23
 161.738 1.09375 161.738 1.09375 148.961 13.6807 c 0,24,25
 138.025 24.4551 138.025 24.4551 137.578 40.7812 c 0,26,27
 137.27 125.873 137.27 125.873 137.596 178.809 c 128,-1,28
 137.922 231.745 137.922 231.745 135.125 261.232 c 128,-1,29
 132.328 290.719 132.328 290.719 126.381 301.109 c 128,-1,30
 120.434 311.5 120.434 311.5 107.578 311.5 c 2,31,-1
 74.5156 311.5 l 2,32,33
 58.9902 311.5 58.9902 311.5 48.0039 322.487 c 128,-1,34
 37.0176 333.475 37.0176 333.475 37.0156 349 c 128,-1,35
 37.0156 364.524 37.0156 364.524 48.0039 375.513 c 128,-1,36
 58.9922 386.5 58.9922 386.5 74.5156 386.5 c 2,37,-1
 107.578 386.5 l 2,38,39
 113.383 386.5 113.383 386.5 117.32 387.843 c 128,-1,40
 121.258 389.187 121.258 389.187 124.635 396.278 c 128,-1,41
 128.012 403.369 128.012 403.369 129.998 409.421 c 128,-1,42
 131.984 415.473 131.984 415.473 133.57 434.189 c 128,-1,43
 135.156 452.907 135.156 452.907 135.852 467.581 c 128,-1,44
 136.547 482.255 136.547 482.255 137 516.512 c 0,45,46
 137.756 573.668 137.756 573.668 137.516 577.979 c 0,47,48
 135.232 618.943 135.232 618.943 137.578 658.281 c 0,49,50
 138.553 674.614 138.553 674.614 149.314 685.921 c 0,51,52
 160.781 697.969 160.781 697.969 176.391 697.969 c 2,0,-1
EndSplineSet
EndChar
StartChar: bar
Encoding: 124 124 93
Width: 346
GlyphClass: 2
Flags: W
Fore
175.104 766.71 m 128,-1,1
 190.631 766.71 190.631 766.71 201.617 755.723 c 128,-1,2
 212.604 744.735 212.604 744.735 212.604 729.21 c 2,3,-1
 212.604 -122.29 l 2,4,5
 212.604 -137.817 212.604 -137.817 201.617 -148.803 c 128,-1,6
 190.629 -159.79 190.629 -159.79 175.104 -159.79 c 128,-1,7
 159.58 -159.79 159.58 -159.79 148.592 -148.803 c 128,-1,8
 137.604 -137.814 137.604 -137.814 137.604 -122.29 c 2,9,-1
 137.604 729.21 l 2,10,11
 137.604 744.733 137.604 744.733 148.592 755.723 c 128,-1,0
 159.578 766.71 159.578 766.71 175.104 766.71 c 128,-1,1
EndSplineSet
EndChar
StartChar: braceright
Encoding: 125 125 94
Width: 430
GlyphClass: 2
Flags: W
Fore
239.609 697.969 m 6,0,1
 255.219 697.969 255.219 697.969 266.686 685.921 c 4,2,3
 277.447 674.614 277.447 674.614 278.422 658.281 c 4,4,5
 280.768 618.943 280.768 618.943 278.484 577.979 c 4,6,7
 278.244 573.668 278.244 573.668 279 516.512 c 4,8,9
 279.453 482.255 279.453 482.255 280.148 467.581 c 132,-1,10
 280.844 452.907 280.844 452.907 282.43 434.189 c 132,-1,11
 284.016 415.473 284.016 415.473 286.002 409.421 c 132,-1,12
 287.988 403.369 287.988 403.369 291.365 396.278 c 132,-1,13
 294.742 389.187 294.742 389.187 298.68 387.843 c 132,-1,14
 302.617 386.5 302.617 386.5 308.422 386.5 c 6,15,-1
 341.484 386.5 l 6,16,17
 357.008 386.5 357.008 386.5 367.996 375.513 c 132,-1,18
 378.984 364.524 378.984 364.524 378.984 349 c 132,-1,19
 378.982 333.475 378.982 333.475 367.996 322.487 c 132,-1,20
 357.01 311.5 357.01 311.5 341.484 311.5 c 6,21,-1
 308.422 311.5 l 6,22,23
 295.566 311.5 295.566 311.5 289.619 301.109 c 132,-1,24
 283.672 290.719 283.672 290.719 280.875 261.232 c 132,-1,25
 278.078 231.745 278.078 231.745 278.404 178.809 c 132,-1,26
 278.73 125.873 278.73 125.873 278.422 40.7812 c 4,27,28
 277.975 24.4551 277.975 24.4551 267.039 13.6807 c 4,29,30
 254.262 1.09375 254.262 1.09375 239.609 1.09375 c 6,31,-1
 105.922 1.09375 l 6,32,33
 90.3984 1.09375 90.3984 1.09375 79.4102 12.0811 c 132,-1,34
 68.4219 23.0693 68.4219 23.0693 68.4219 38.5938 c 132,-1,35
 68.4219 54.1191 68.4219 54.1191 79.4082 65.1064 c 132,-1,36
 90.3945 76.0938 90.3945 76.0938 105.922 76.0938 c 6,37,-1
 203.422 76.0938 l 5,38,39
 202.717 177.091 202.717 177.091 202.568 234.035 c 132,-1,40
 202.42 290.98 202.42 290.98 209.779 314.904 c 132,-1,41
 217.139 338.828 217.139 338.828 239.717 349 c 5,42,43
 217.561 359.026 217.561 359.026 209.447 392 c 132,-1,44
 201.334 424.974 201.334 424.974 202.402 481.722 c 132,-1,45
 203.471 538.471 203.471 538.471 203.422 622.969 c 5,46,-1
 105.922 622.969 l 6,47,48
 90.3984 622.969 90.3984 622.969 79.4102 633.956 c 132,-1,49
 68.4219 644.944 68.4219 644.944 68.4219 660.469 c 132,-1,50
 68.4219 675.995 68.4219 675.995 79.4082 686.981 c 132,-1,51
 90.3945 697.969 90.3945 697.969 105.922 697.969 c 6,52,-1
 239.609 697.969 l 6,0,1
EndSplineSet
EndChar
StartChar: brokenbar
Encoding: 166 166 95
Width: 130
GlyphClass: 2
Flags: W
Fore
67.6328 653.721 m 128,-1,1
 83.1602 653.721 83.1602 653.721 94.1465 642.733 c 128,-1,2
 105.133 631.747 105.133 631.747 105.133 616.221 c 2,3,-1
 105.133 408.721 l 2,4,5
 105.133 393.196 105.133 393.196 94.1445 382.208 c 128,-1,6
 83.1562 371.221 83.1562 371.221 67.6328 371.221 c 128,-1,7
 52.1094 371.221 52.1094 371.221 41.1211 382.208 c 128,-1,8
 30.1328 393.196 30.1328 393.196 30.1328 408.721 c 2,9,-1
 30.1328 616.221 l 2,10,11
 30.1328 631.747 30.1328 631.747 41.1191 642.733 c 128,-1,0
 52.1055 653.721 52.1055 653.721 67.6328 653.721 c 128,-1,1
67.6328 283.721 m 128,-1,13
 83.1602 283.721 83.1602 283.721 94.1465 272.733 c 128,-1,14
 105.133 261.746 105.133 261.746 105.133 246.221 c 2,15,-1
 105.133 38.7207 l 2,16,17
 105.133 23.1963 105.133 23.1963 94.1445 12.208 c 128,-1,18
 83.1562 1.2207 83.1562 1.2207 67.6328 1.2207 c 128,-1,19
 52.1094 1.2207 52.1094 1.2207 41.1211 12.208 c 128,-1,20
 30.1328 23.1963 30.1328 23.1963 30.1328 38.7207 c 2,21,-1
 30.1328 246.221 l 2,22,23
 30.1328 261.746 30.1328 261.746 41.1191 272.733 c 128,-1,12
 52.1055 283.721 52.1055 283.721 67.6328 283.721 c 128,-1,13
EndSplineSet
EndChar
StartChar: questiondown
Encoding: 191 191 96
Width: 524
GlyphClass: 2
Flags: W
Fore
244.197 -1.54297 m 0,0,1
 205.879 -1.54297 205.879 -1.54297 170.848 8.30762 c 128,-1,2
 135.818 18.1582 135.818 18.1582 105.5 38.25 c 128,-1,3
 75.1836 58.3418 75.1836 58.3418 57.0977 93.8906 c 128,-1,4
 39.0117 129.439 39.0117 129.439 39.0117 175.988 c 0,5,6
 39.0117 334.145 39.0117 334.145 188.387 334.145 c 0,7,8
 227.088 334.145 227.088 334.145 246.141 342.665 c 128,-1,9
 265.191 351.185 265.191 351.185 275.289 378.899 c 128,-1,10
 285.387 406.613 285.387 406.613 285.387 462.645 c 0,11,12
 285.387 487.015 285.387 487.015 304.02 496.448 c 128,-1,13
 322.652 505.882 322.652 505.882 341.285 495.31 c 128,-1,14
 359.916 484.737 359.916 484.737 359.916 460.52 c 0,15,16
 359.916 398.978 359.916 398.978 349.34 358.95 c 128,-1,17
 338.764 318.924 338.764 318.924 315.668 297.348 c 128,-1,18
 292.574 275.772 292.574 275.772 262.91 267.646 c 128,-1,19
 233.244 259.52 233.244 259.52 188.387 259.52 c 0,20,21
 148.891 259.52 148.891 259.52 131.514 235.36 c 128,-1,22
 114.137 211.2 114.137 211.2 114.137 178.895 c 0,23,24
 114.137 72.9883 114.137 72.9883 245.355 72.9883 c 0,25,26
 328.715 72.9883 328.715 72.9883 350.566 85.3496 c 128,-1,27
 372.416 97.71 372.416 97.71 372.416 151.457 c 1,28,29
 376.062 162.984 376.062 162.984 385.904 170.314 c 128,-1,30
 395.746 177.645 395.746 177.645 408.166 177.645 c 0,31,32
 423.693 177.645 423.693 177.645 434.68 166.657 c 128,-1,33
 445.668 155.67 445.668 155.67 445.666 140.145 c 0,34,35
 445.666 60.7539 445.666 60.7539 403.389 29.6055 c 128,-1,36
 361.109 -1.54297 361.109 -1.54297 244.197 -1.54297 c 0,0,1
285.248 670.437 m 128,-1,38
 285.248 685.962 285.248 685.962 296.234 696.949 c 128,-1,39
 307.223 707.937 307.223 707.937 322.748 707.937 c 128,-1,40
 338.271 707.937 338.271 707.937 349.26 696.949 c 128,-1,41
 360.248 685.961 360.248 685.961 360.248 670.437 c 128,-1,42
 360.248 654.912 360.248 654.912 349.26 643.925 c 128,-1,43
 338.271 632.937 338.271 632.937 322.748 632.937 c 128,-1,44
 307.223 632.937 307.223 632.937 296.234 643.924 c 128,-1,37
 285.248 654.911 285.248 654.911 285.248 670.437 c 128,-1,38
EndSplineSet
EndChar
StartChar: acute
Encoding: 180 180 97
Width: 418
Flags: W
TeX: 0 0 0 0
Fore
328.975 695.021 m 132,-1,1
 336.972 681.713 336.972 681.713 333.213 666.637 c 4,2,3
 329.531 651.869 329.531 651.869 316.146 643.562 c 6,4,-1
 133.159 530.008 l 6,5,6
 120.154 521.938 120.154 521.938 104.776 525.772 c 4,7,8
 89.6992 529.531 89.6992 529.531 81.7021 542.838 c 132,-1,9
 73.7051 556.146 73.7051 556.146 77.4648 571.223 c 4,10,11
 81.1475 585.99 81.1475 585.99 94.5312 594.296 c 6,12,-1
 277.518 707.851 l 6,13,14
 290.523 715.922 290.523 715.922 305.9 712.087 c 4,15,0
 320.978 708.328 320.978 708.328 328.975 695.021 c 132,-1,1
EndSplineSet
EndChar
StartChar: asciitilde
Encoding: 126 126 98
Width: 438
Flags: W
TeX: 0 0 0 0
Fore
168.4 692.318 m 0,0,1
 197.366 692.318 197.366 692.318 214.646 683.75 c 128,-1,2
 231.927 675.183 231.927 675.183 237.884 662.953 c 128,-1,3
 243.841 650.725 243.841 650.725 247.448 638.496 c 128,-1,4
 251.056 626.268 251.056 626.268 258.154 617.699 c 128,-1,5
 265.253 609.131 265.253 609.131 279.337 609.131 c 0,6,7
 292.536 609.131 292.536 609.131 295.608 614.534 c 128,-1,8
 298.682 619.938 298.682 619.938 298.682 642.818 c 0,9,10
 298.681 658.343 298.681 658.343 309.669 669.331 c 128,-1,11
 320.657 680.318 320.657 680.318 336.182 680.318 c 128,-1,12
 351.706 680.318 351.706 680.318 362.694 669.331 c 128,-1,13
 373.683 658.343 373.683 658.343 373.682 642.818 c 0,14,15
 373.682 584.837 373.682 584.837 348.499 559.718 c 128,-1,16
 323.317 534.6 323.317 534.6 268.182 534.6 c 0,17,18
 240.935 534.6 240.935 534.6 224.601 543.168 c 128,-1,19
 208.268 551.736 208.268 551.736 202.644 563.965 c 128,-1,20
 197.021 576.193 197.021 576.193 193.732 588.422 c 128,-1,21
 190.444 600.651 190.444 600.651 184.229 609.219 c 128,-1,22
 178.016 617.787 178.016 617.787 165.557 617.787 c 0,23,24
 155.055 617.787 155.055 617.787 151.478 607.409 c 128,-1,25
 147.899 597.031 147.899 597.031 147.9 572.1 c 0,26,27
 147.901 556.575 147.901 556.575 136.913 545.588 c 128,-1,28
 125.926 534.6 125.926 534.6 110.4 534.6 c 128,-1,29
 94.875 534.6 94.875 534.6 83.8877 545.587 c 128,-1,30
 72.9004 556.574 72.9004 556.574 72.9004 572.1 c 0,31,32
 72.9004 692.318 72.9004 692.318 168.4 692.318 c 0,0,1
EndSplineSet
EndChar
StartChar: cedilla
Encoding: 184 184 99
Width: 278
Flags: W
TeX: 0 0 0 0
Fore
233.319 -33.7305 m 4,0,1
 233.319 -85.0117 233.319 -85.0117 201.945 -117.121 c 132,-1,2
 170.571 -149.23 170.571 -149.23 113.101 -149.23 c 4,3,4
 97.5762 -149.229 97.5762 -149.229 86.5889 -138.241 c 132,-1,5
 75.6006 -127.254 75.6006 -127.254 75.6006 -111.73 c 132,-1,6
 75.6006 -96.2051 75.6006 -96.2051 86.5889 -85.2168 c 132,-1,7
 97.5762 -74.2295 97.5762 -74.2295 113.101 -74.2305 c 4,8,9
 158.788 -74.2305 158.788 -74.2305 158.788 -36.5742 c 4,10,11
 158.788 -12.6904 158.788 -12.6904 147.769 -2.95996 c 132,-1,12
 136.748 6.76953 136.748 6.76953 113.101 6.76953 c 4,13,14
 97.5771 6.76953 97.5771 6.76953 86.5889 17.7578 c 132,-1,15
 75.6006 28.7461 75.6006 28.7461 75.6006 44.2695 c 132,-1,16
 75.6006 59.7939 75.6006 59.7939 86.5889 70.7822 c 132,-1,17
 97.5771 81.7705 97.5771 81.7705 113.101 81.7695 c 4,18,19
 171.314 81.7695 171.314 81.7695 202.317 51.4658 c 132,-1,20
 233.319 21.1611 233.319 21.1611 233.319 -33.7305 c 4,0,1
EndSplineSet
EndChar
StartChar: dieresis
Encoding: 168 168 100
Width: 356
Flags: W
TeX: 0 0 0 0
Fore
304.723 629.637 m 128,-1,1
 304.723 614.112 304.723 614.112 293.734 603.125 c 128,-1,2
 282.747 592.137 282.747 592.137 267.223 592.137 c 128,-1,3
 251.697 592.137 251.697 592.137 240.71 603.124 c 128,-1,4
 229.723 614.112 229.723 614.112 229.723 629.637 c 128,-1,5
 229.723 645.162 229.723 645.162 240.71 656.149 c 128,-1,6
 251.697 667.137 251.697 667.137 267.223 667.137 c 128,-1,7
 282.747 667.137 282.747 667.137 293.734 656.149 c 128,-1,0
 304.723 645.161 304.723 645.161 304.723 629.637 c 128,-1,1
128.651 629.637 m 128,-1,9
 128.651 614.112 128.651 614.112 117.664 603.124 c 128,-1,10
 106.677 592.137 106.677 592.137 91.1514 592.137 c 128,-1,11
 75.626 592.137 75.626 592.137 64.6387 603.124 c 128,-1,12
 53.6514 614.112 53.6514 614.112 53.6514 629.637 c 128,-1,13
 53.6514 645.162 53.6514 645.162 64.6387 656.149 c 128,-1,14
 75.626 667.137 75.626 667.137 91.1514 667.137 c 128,-1,15
 106.677 667.137 106.677 667.137 117.664 656.149 c 128,-1,8
 128.651 645.162 128.651 645.162 128.651 629.637 c 128,-1,9
EndSplineSet
EndChar
StartChar: circumflex
Encoding: 710 710 101
Width: 436
Flags: W
TeX: 0 0 0 0
Fore
192.775 680.809 m 6,0,1
 213.774 693.99 213.774 693.99 238.082 680.809 c 5,2,-1
 339.632 588.775 l 5,3,4
 353.08 581.012 353.08 581.012 357.111 566.008 c 132,-1,5
 361.143 551.005 361.143 551.005 353.382 537.557 c 132,-1,6
 345.62 524.113 345.62 524.113 330.599 520.094 c 132,-1,7
 315.577 516.074 315.577 516.074 302.132 523.838 c 5,8,-1
 210.382 604.708 l 5,9,-1
 118.538 523.838 l 5,10,11
 105.093 516.075 105.093 516.075 90.0869 520.095 c 132,-1,12
 75.0811 524.113 75.0811 524.113 67.3193 537.557 c 132,-1,13
 59.5557 551.003 59.5557 551.003 63.5742 566.008 c 132,-1,14
 67.5928 581.014 67.5928 581.014 81.0381 588.775 c 5,15,-1
 192.775 680.809 l 6,0,1
EndSplineSet
EndChar
StartChar: caron
Encoding: 711 711 102
Width: 436
Flags: W
TeX: 0 0 0 0
Fore
195.775 513.191 m 2,0,-1
 84.0381 605.225 l 1,1,2
 70.5928 612.986 70.5928 612.986 66.5742 627.992 c 128,-1,3
 62.5557 642.997 62.5557 642.997 70.3193 656.443 c 128,-1,4
 78.0811 669.887 78.0811 669.887 93.0869 673.905 c 128,-1,5
 108.093 677.925 108.093 677.925 121.538 670.162 c 1,6,-1
 213.382 589.292 l 1,7,-1
 305.132 670.162 l 1,8,9
 318.577 677.926 318.577 677.926 333.599 673.906 c 128,-1,10
 348.62 669.887 348.62 669.887 356.382 656.443 c 128,-1,11
 364.143 642.995 364.143 642.995 360.111 627.992 c 128,-1,12
 356.08 612.988 356.08 612.988 342.632 605.225 c 1,13,-1
 241.082 513.191 l 1,14,15
 216.774 500.01 216.774 500.01 195.775 513.191 c 2,0,-1
EndSplineSet
EndChar
StartChar: ring
Encoding: 730 730 103
Width: 377
Flags: W
TeX: 0 0 0 0
Fore
183.324 754.75 m 0,0,1
 235.693 754.75 235.693 754.75 265.778 726.447 c 128,-1,2
 295.863 698.145 295.863 698.145 298.574 644.781 c 0,3,4
 298.824 642.624 298.824 642.624 298.824 640.406 c 2,5,-1
 298.793 638.156 l 1,6,-1
 298.793 637.469 l 1,7,-1
 298.824 634.531 l 2,8,9
 298.824 632.313 298.824 632.313 298.574 630.156 c 0,10,11
 295.872 576.783 295.872 576.783 265.789 548.485 c 128,-1,12
 235.705 520.188 235.705 520.188 183.324 520.188 c 0,13,14
 134.635 520.188 134.635 520.188 102.996 548.627 c 128,-1,15
 71.3574 577.066 71.3574 577.066 68.168 629.5 c 0,16,17
 67.8242 632.11 67.8242 632.11 67.8242 634.531 c 2,18,-1
 67.8555 636.719 l 1,19,-1
 67.8555 638.188 l 1,20,-1
 67.8242 640.406 l 2,21,22
 67.8242 642.777 67.8242 642.777 68.168 645.375 c 0,23,24
 71.375 697.878 71.375 697.878 103.014 726.314 c 128,-1,25
 134.653 754.75 134.653 754.75 183.324 754.75 c 0,0,1
180.48 680.219 m 0,26,27
 144.07 680.219 144.07 680.219 142.855 637.5 c 2,28,-1
 142.855 637.469 l 2,29,30
 144.071 594.719 144.071 594.719 180.48 594.719 c 0,31,32
 203.59 594.719 203.59 594.719 213.415 605.023 c 128,-1,33
 223.24 615.328 223.24 615.328 223.793 637.312 c 2,34,-1
 223.793 637.594 l 2,35,36
 223.24 659.583 223.24 659.583 213.413 669.901 c 128,-1,37
 203.586 680.219 203.586 680.219 180.48 680.219 c 0,26,27
EndSplineSet
EndChar
StartChar: breve
Encoding: 728 728 104
Width: 324
Flags: W
TeX: 0 0 0 0
Fore
159.77 539.186 m 0,0,1
 108.487 539.186 108.487 539.186 76.3789 570.56 c 128,-1,2
 44.2695 601.934 44.2695 601.934 44.2695 659.404 c 0,3,4
 44.2705 674.93 44.2705 674.93 55.2578 685.917 c 128,-1,5
 66.2451 696.904 66.2451 696.904 81.7695 696.904 c 128,-1,6
 97.2959 696.904 97.2959 696.904 108.283 685.917 c 128,-1,7
 119.271 674.931 119.271 674.931 119.27 659.404 c 0,8,9
 119.27 613.717 119.27 613.717 156.926 613.717 c 0,10,11
 180.81 613.717 180.81 613.717 190.539 624.737 c 128,-1,12
 200.27 635.757 200.27 635.757 200.27 659.404 c 0,13,14
 200.269 674.93 200.269 674.93 211.257 685.917 c 128,-1,15
 222.245 696.904 222.245 696.904 237.77 696.904 c 128,-1,16
 253.294 696.904 253.294 696.904 264.282 685.917 c 128,-1,17
 275.271 674.93 275.271 674.93 275.27 659.404 c 0,18,19
 275.27 601.19 275.27 601.19 244.965 570.188 c 128,-1,20
 214.66 539.186 214.66 539.186 159.77 539.186 c 0,0,1
EndSplineSet
EndChar
StartChar: tilde
Encoding: 732 732 105
Width: 438
Flags: W
TeX: 0 0 0 0
Fore
168.4 692.318 m 0,0,1
 197.366 692.318 197.366 692.318 214.646 683.75 c 128,-1,2
 231.927 675.183 231.927 675.183 237.884 662.953 c 128,-1,3
 243.841 650.725 243.841 650.725 247.448 638.496 c 128,-1,4
 251.056 626.268 251.056 626.268 258.154 617.699 c 128,-1,5
 265.253 609.131 265.253 609.131 279.337 609.131 c 0,6,7
 292.536 609.131 292.536 609.131 295.608 614.534 c 128,-1,8
 298.682 619.938 298.682 619.938 298.682 642.818 c 0,9,10
 298.681 658.343 298.681 658.343 309.669 669.331 c 128,-1,11
 320.657 680.318 320.657 680.318 336.182 680.318 c 128,-1,12
 351.706 680.318 351.706 680.318 362.694 669.331 c 128,-1,13
 373.683 658.343 373.683 658.343 373.682 642.818 c 0,14,15
 373.682 584.837 373.682 584.837 348.499 559.718 c 128,-1,16
 323.317 534.6 323.317 534.6 268.182 534.6 c 0,17,18
 240.935 534.6 240.935 534.6 224.601 543.168 c 128,-1,19
 208.268 551.736 208.268 551.736 202.644 563.965 c 128,-1,20
 197.021 576.193 197.021 576.193 193.732 588.422 c 128,-1,21
 190.444 600.651 190.444 600.651 184.229 609.219 c 128,-1,22
 178.016 617.787 178.016 617.787 165.557 617.787 c 0,23,24
 155.055 617.787 155.055 617.787 151.478 607.409 c 128,-1,25
 147.899 597.031 147.899 597.031 147.9 572.1 c 0,26,27
 147.901 556.575 147.901 556.575 136.913 545.588 c 128,-1,28
 125.926 534.6 125.926 534.6 110.4 534.6 c 128,-1,29
 94.875 534.6 94.875 534.6 83.8877 545.587 c 128,-1,30
 72.9004 556.574 72.9004 556.574 72.9004 572.1 c 0,31,32
 72.9004 692.318 72.9004 692.318 168.4 692.318 c 0,0,1
EndSplineSet
EndChar
StartChar: ogonek
Encoding: 731 731 106
Width: 265
Flags: W
TeX: 0 0 0 0
Fore
62 -33.7305 m 0,0,1
 62 21.1611 62 21.1611 93.002 51.4658 c 128,-1,2
 124.005 81.7695 124.005 81.7695 182.219 81.7695 c 0,3,4
 197.742 81.7705 197.742 81.7705 208.73 70.7822 c 128,-1,5
 219.719 59.7939 219.719 59.7939 219.719 44.2695 c 128,-1,6
 219.719 28.7461 219.719 28.7461 208.73 17.7578 c 128,-1,7
 197.742 6.76953 197.742 6.76953 182.219 6.76953 c 0,8,9
 158.571 6.76953 158.571 6.76953 147.551 -2.95996 c 128,-1,10
 136.531 -12.6904 136.531 -12.6904 136.531 -36.5742 c 0,11,12
 136.531 -74.2305 136.531 -74.2305 182.219 -74.2305 c 0,13,14
 197.743 -74.2295 197.743 -74.2295 208.73 -85.2168 c 128,-1,15
 219.719 -96.2051 219.719 -96.2051 219.719 -111.73 c 128,-1,16
 219.719 -127.254 219.719 -127.254 208.73 -138.241 c 128,-1,17
 197.743 -149.229 197.743 -149.229 182.219 -149.23 c 0,18,19
 124.748 -149.23 124.748 -149.23 93.374 -117.121 c 128,-1,20
 62 -85.0117 62 -85.0117 62 -33.7305 c 0,0,1
EndSplineSet
EndChar
StartChar: hungarumlaut
Encoding: 733 733 107
Width: 609
Flags: W
TeX: 0 0 0 0
Fore
328.975 695.021 m 128,-1,1
 336.972 681.713 336.972 681.713 333.213 666.637 c 0,2,3
 329.531 651.869 329.531 651.869 316.146 643.562 c 2,4,-1
 133.159 530.008 l 2,5,6
 120.154 521.938 120.154 521.938 104.776 525.772 c 0,7,8
 89.6992 529.531 89.6992 529.531 81.7021 542.838 c 128,-1,9
 73.7051 556.146 73.7051 556.146 77.4648 571.223 c 0,10,11
 81.1475 585.99 81.1475 585.99 94.5312 594.296 c 2,12,-1
 277.518 707.851 l 2,13,14
 290.523 715.922 290.523 715.922 305.9 712.087 c 0,15,0
 320.978 708.328 320.978 708.328 328.975 695.021 c 128,-1,1
575.329 695.021 m 128,-1,17
 583.326 681.713 583.326 681.713 579.567 666.637 c 0,18,19
 575.886 651.869 575.886 651.869 562.5 643.562 c 2,20,-1
 379.514 530.008 l 2,21,22
 366.509 521.938 366.509 521.938 351.131 525.772 c 0,23,24
 336.054 529.531 336.054 529.531 328.057 542.838 c 128,-1,25
 320.06 556.146 320.06 556.146 323.819 571.223 c 0,26,27
 327.502 585.99 327.502 585.99 340.886 594.296 c 2,28,-1
 523.872 707.851 l 2,29,30
 536.878 715.922 536.878 715.922 552.255 712.087 c 0,31,16
 567.332 708.328 567.332 708.328 575.329 695.021 c 128,-1,17
EndSplineSet
EndChar
StartChar: dotaccent
Encoding: 729 729 108
Width: 181
Flags: W
TeX: 0 0 0 0
Fore
100 667.756 m 0,0,1
 122.002 671.755 122.002 671.755 140 655.756 c 0,2,3
 158 637.756 158 637.756 158 613.756 c 2,4,-1
 158 605.756 l 2,5,6
 158 575.756 158 575.756 132 559.756 c 0,7,8
 104 543.756 104 543.756 78 559.756 c 128,-1,9
 52.002 575.755 52.002 575.755 52 605.756 c 2,10,-1
 52 613.756 l 2,11,12
 52 623.755 52 623.755 56 631.756 c 1,13,14
 66.002 663.756 66.002 663.756 100 667.756 c 0,0,1
EndSplineSet
EndChar
StartChar: dotlessi
Encoding: 305 305 136
Width: 172
Flags: W
TeX: 0 0 0 0
Fore
92.7178 476.062 m 128,-1,1
 108.243 476.062 108.243 476.062 119.23 465.075 c 128,-1,2
 130.218 454.088 130.218 454.088 130.218 438.562 c 2,3,-1
 130.218 37.0625 l 2,4,5
 130.219 21.5381 130.219 21.5381 119.231 10.5508 c 128,-1,6
 108.243 -0.4375 108.243 -0.4375 92.7178 -0.4375 c 128,-1,7
 77.1934 -0.4375 77.1934 -0.4375 66.2061 10.5508 c 128,-1,8
 55.2178 21.5381 55.2178 21.5381 55.2178 37.0625 c 2,9,-1
 55.2178 438.562 l 2,10,11
 55.2188 454.088 55.2188 454.088 66.2061 465.075 c 128,-1,0
 77.1934 476.062 77.1934 476.062 92.7178 476.062 c 128,-1,1
EndSplineSet
EndChar
